G04 #@! TF.GenerationSoftware,KiCad,Pcbnew,5.1.2-5.1.2*
G04 #@! TF.CreationDate,2019-04-30T10:28:01-04:00*
G04 #@! TF.ProjectId,Controlpanel,436f6e74-726f-46c7-9061-6e656c2e6b69,rev?*
G04 #@! TF.SameCoordinates,Original*
G04 #@! TF.FileFunction,Soldermask,Top*
G04 #@! TF.FilePolarity,Negative*
%FSLAX46Y46*%
G04 Gerber Fmt 4.6, Leading zero omitted, Abs format (unit mm)*
G04 Created by KiCad (PCBNEW 5.1.2-5.1.2) date 2019-04-30 10:28:01*
%MOMM*%
%LPD*%
G04 APERTURE LIST*
%ADD10C,0.100000*%
G04 APERTURE END LIST*
D10*
G36*
X262801632Y-102784677D02*
G01*
X262989858Y-102862643D01*
X263538868Y-103090050D01*
X264202362Y-103533383D01*
X264766617Y-104097638D01*
X265209950Y-104761132D01*
X265277696Y-104924686D01*
X265515323Y-105498368D01*
X265671000Y-106281010D01*
X265671000Y-107078990D01*
X265515323Y-107861632D01*
X265450247Y-108018739D01*
X265209950Y-108598868D01*
X264766617Y-109262362D01*
X264202362Y-109826617D01*
X263538868Y-110269950D01*
X263107005Y-110448833D01*
X262801632Y-110575323D01*
X262018990Y-110731000D01*
X261221010Y-110731000D01*
X260438368Y-110575323D01*
X260132995Y-110448833D01*
X259701132Y-110269950D01*
X259037638Y-109826617D01*
X258473383Y-109262362D01*
X258030050Y-108598868D01*
X257789753Y-108018739D01*
X257724677Y-107861632D01*
X257569000Y-107078990D01*
X257569000Y-106281010D01*
X257724677Y-105498368D01*
X257962304Y-104924686D01*
X258030050Y-104761132D01*
X258473383Y-104097638D01*
X259037638Y-103533383D01*
X259701132Y-103090050D01*
X260250142Y-102862643D01*
X260438368Y-102784677D01*
X261221010Y-102629000D01*
X262018990Y-102629000D01*
X262801632Y-102784677D01*
X262801632Y-102784677D01*
G37*
G36*
X158661632Y-102784677D02*
G01*
X158849858Y-102862643D01*
X159398868Y-103090050D01*
X160062362Y-103533383D01*
X160626617Y-104097638D01*
X161069950Y-104761132D01*
X161137696Y-104924686D01*
X161375323Y-105498368D01*
X161531000Y-106281010D01*
X161531000Y-107078990D01*
X161375323Y-107861632D01*
X161310247Y-108018739D01*
X161069950Y-108598868D01*
X160626617Y-109262362D01*
X160062362Y-109826617D01*
X159398868Y-110269950D01*
X158967005Y-110448833D01*
X158661632Y-110575323D01*
X157878990Y-110731000D01*
X157081010Y-110731000D01*
X156298368Y-110575323D01*
X155992995Y-110448833D01*
X155561132Y-110269950D01*
X154897638Y-109826617D01*
X154333383Y-109262362D01*
X153890050Y-108598868D01*
X153649753Y-108018739D01*
X153584677Y-107861632D01*
X153429000Y-107078990D01*
X153429000Y-106281010D01*
X153584677Y-105498368D01*
X153822304Y-104924686D01*
X153890050Y-104761132D01*
X154333383Y-104097638D01*
X154897638Y-103533383D01*
X155561132Y-103090050D01*
X156110142Y-102862643D01*
X156298368Y-102784677D01*
X157081010Y-102629000D01*
X157878990Y-102629000D01*
X158661632Y-102784677D01*
X158661632Y-102784677D01*
G37*
G36*
X180802178Y-107058597D02*
G01*
X180854950Y-107069094D01*
X180954370Y-107110275D01*
X181043846Y-107170061D01*
X181119939Y-107246154D01*
X181179725Y-107335630D01*
X181220906Y-107435050D01*
X181241900Y-107540594D01*
X181241900Y-107648206D01*
X181220906Y-107753750D01*
X181179725Y-107853170D01*
X181119939Y-107942646D01*
X181043846Y-108018739D01*
X180954370Y-108078525D01*
X180854950Y-108119706D01*
X180802178Y-108130203D01*
X180749407Y-108140700D01*
X180641793Y-108140700D01*
X180589022Y-108130203D01*
X180536250Y-108119706D01*
X180436830Y-108078525D01*
X180347354Y-108018739D01*
X180271261Y-107942646D01*
X180211475Y-107853170D01*
X180170294Y-107753750D01*
X180149300Y-107648206D01*
X180149300Y-107540594D01*
X180170294Y-107435050D01*
X180211475Y-107335630D01*
X180271261Y-107246154D01*
X180347354Y-107170061D01*
X180436830Y-107110275D01*
X180536250Y-107069094D01*
X180589022Y-107058597D01*
X180641793Y-107048100D01*
X180749407Y-107048100D01*
X180802178Y-107058597D01*
X180802178Y-107058597D01*
G37*
G36*
X182834178Y-107058597D02*
G01*
X182886950Y-107069094D01*
X182986370Y-107110275D01*
X183075846Y-107170061D01*
X183151939Y-107246154D01*
X183211725Y-107335630D01*
X183252906Y-107435050D01*
X183273900Y-107540594D01*
X183273900Y-107648206D01*
X183252906Y-107753750D01*
X183211725Y-107853170D01*
X183151939Y-107942646D01*
X183075846Y-108018739D01*
X182986370Y-108078525D01*
X182886950Y-108119706D01*
X182834178Y-108130203D01*
X182781407Y-108140700D01*
X182673793Y-108140700D01*
X182621022Y-108130203D01*
X182568250Y-108119706D01*
X182468830Y-108078525D01*
X182379354Y-108018739D01*
X182303261Y-107942646D01*
X182243475Y-107853170D01*
X182202294Y-107753750D01*
X182181300Y-107648206D01*
X182181300Y-107540594D01*
X182202294Y-107435050D01*
X182243475Y-107335630D01*
X182303261Y-107246154D01*
X182379354Y-107170061D01*
X182468830Y-107110275D01*
X182568250Y-107069094D01*
X182621022Y-107058597D01*
X182673793Y-107048100D01*
X182781407Y-107048100D01*
X182834178Y-107058597D01*
X182834178Y-107058597D01*
G37*
G36*
X179413210Y-104474747D02*
G01*
X179532842Y-104498543D01*
X179758226Y-104591900D01*
X179961066Y-104727433D01*
X180133567Y-104899934D01*
X180269100Y-105102774D01*
X180362457Y-105328158D01*
X180410050Y-105567423D01*
X180410050Y-105811377D01*
X180362457Y-106050642D01*
X180269100Y-106276026D01*
X180133567Y-106478866D01*
X179961066Y-106651367D01*
X179758226Y-106786900D01*
X179532842Y-106880257D01*
X179413210Y-106904053D01*
X179293578Y-106927850D01*
X179049622Y-106927850D01*
X178929990Y-106904053D01*
X178810358Y-106880257D01*
X178584974Y-106786900D01*
X178382134Y-106651367D01*
X178209633Y-106478866D01*
X178074100Y-106276026D01*
X177980743Y-106050642D01*
X177933150Y-105811377D01*
X177933150Y-105567423D01*
X177980743Y-105328158D01*
X178074100Y-105102774D01*
X178209633Y-104899934D01*
X178382134Y-104727433D01*
X178584974Y-104591900D01*
X178810358Y-104498543D01*
X178929990Y-104474747D01*
X179049622Y-104450950D01*
X179293578Y-104450950D01*
X179413210Y-104474747D01*
X179413210Y-104474747D01*
G37*
G36*
X184493210Y-104474747D02*
G01*
X184612842Y-104498543D01*
X184838226Y-104591900D01*
X185041066Y-104727433D01*
X185213567Y-104899934D01*
X185349100Y-105102774D01*
X185442457Y-105328158D01*
X185490050Y-105567423D01*
X185490050Y-105811377D01*
X185442457Y-106050642D01*
X185349100Y-106276026D01*
X185213567Y-106478866D01*
X185041066Y-106651367D01*
X184838226Y-106786900D01*
X184612842Y-106880257D01*
X184493210Y-106904053D01*
X184373578Y-106927850D01*
X184129622Y-106927850D01*
X184009990Y-106904053D01*
X183890358Y-106880257D01*
X183664974Y-106786900D01*
X183462134Y-106651367D01*
X183289633Y-106478866D01*
X183154100Y-106276026D01*
X183060743Y-106050642D01*
X183013150Y-105811377D01*
X183013150Y-105567423D01*
X183060743Y-105328158D01*
X183154100Y-105102774D01*
X183289633Y-104899934D01*
X183462134Y-104727433D01*
X183664974Y-104591900D01*
X183890358Y-104498543D01*
X184009990Y-104474747D01*
X184129622Y-104450950D01*
X184373578Y-104450950D01*
X184493210Y-104474747D01*
X184493210Y-104474747D01*
G37*
G36*
X181206314Y-105896789D02*
G01*
X181287245Y-105930312D01*
X181360080Y-105978979D01*
X181422021Y-106040920D01*
X181470688Y-106113755D01*
X181504211Y-106194686D01*
X181521300Y-106280601D01*
X181521300Y-106368199D01*
X181504211Y-106454114D01*
X181470688Y-106535045D01*
X181422021Y-106607880D01*
X181360080Y-106669821D01*
X181287245Y-106718488D01*
X181287244Y-106718489D01*
X181287243Y-106718489D01*
X181206314Y-106752011D01*
X181120401Y-106769100D01*
X181032799Y-106769100D01*
X180946886Y-106752011D01*
X180865957Y-106718489D01*
X180865956Y-106718489D01*
X180865955Y-106718488D01*
X180793120Y-106669821D01*
X180731179Y-106607880D01*
X180682512Y-106535045D01*
X180648989Y-106454114D01*
X180631900Y-106368199D01*
X180631900Y-106280601D01*
X180648989Y-106194686D01*
X180682512Y-106113755D01*
X180731179Y-106040920D01*
X180793120Y-105978979D01*
X180865955Y-105930312D01*
X180946886Y-105896789D01*
X181032799Y-105879700D01*
X181120401Y-105879700D01*
X181206314Y-105896789D01*
X181206314Y-105896789D01*
G37*
G36*
X182476314Y-105896789D02*
G01*
X182557245Y-105930312D01*
X182630080Y-105978979D01*
X182692021Y-106040920D01*
X182740688Y-106113755D01*
X182774211Y-106194686D01*
X182791300Y-106280601D01*
X182791300Y-106368199D01*
X182774211Y-106454114D01*
X182740688Y-106535045D01*
X182692021Y-106607880D01*
X182630080Y-106669821D01*
X182557245Y-106718488D01*
X182557244Y-106718489D01*
X182557243Y-106718489D01*
X182476314Y-106752011D01*
X182390401Y-106769100D01*
X182302799Y-106769100D01*
X182216886Y-106752011D01*
X182135957Y-106718489D01*
X182135956Y-106718489D01*
X182135955Y-106718488D01*
X182063120Y-106669821D01*
X182001179Y-106607880D01*
X181952512Y-106535045D01*
X181918989Y-106454114D01*
X181901900Y-106368199D01*
X181901900Y-106280601D01*
X181918989Y-106194686D01*
X181952512Y-106113755D01*
X182001179Y-106040920D01*
X182063120Y-105978979D01*
X182135955Y-105930312D01*
X182216886Y-105896789D01*
X182302799Y-105879700D01*
X182390401Y-105879700D01*
X182476314Y-105896789D01*
X182476314Y-105896789D01*
G37*
G36*
X182476314Y-104626789D02*
G01*
X182557245Y-104660312D01*
X182630080Y-104708979D01*
X182692021Y-104770920D01*
X182740688Y-104843755D01*
X182774211Y-104924686D01*
X182791300Y-105010601D01*
X182791300Y-105098199D01*
X182774211Y-105184114D01*
X182740688Y-105265045D01*
X182692021Y-105337880D01*
X182630080Y-105399821D01*
X182557245Y-105448488D01*
X182557244Y-105448489D01*
X182557243Y-105448489D01*
X182476314Y-105482011D01*
X182390401Y-105499100D01*
X182302799Y-105499100D01*
X182216886Y-105482011D01*
X182135957Y-105448489D01*
X182135956Y-105448489D01*
X182135955Y-105448488D01*
X182063120Y-105399821D01*
X182001179Y-105337880D01*
X181952512Y-105265045D01*
X181918989Y-105184114D01*
X181901900Y-105098199D01*
X181901900Y-105010601D01*
X181918989Y-104924686D01*
X181952512Y-104843755D01*
X182001179Y-104770920D01*
X182063120Y-104708979D01*
X182135955Y-104660312D01*
X182216886Y-104626789D01*
X182302799Y-104609700D01*
X182390401Y-104609700D01*
X182476314Y-104626789D01*
X182476314Y-104626789D01*
G37*
G36*
X181206314Y-104626789D02*
G01*
X181287245Y-104660312D01*
X181360080Y-104708979D01*
X181422021Y-104770920D01*
X181470688Y-104843755D01*
X181504211Y-104924686D01*
X181521300Y-105010601D01*
X181521300Y-105098199D01*
X181504211Y-105184114D01*
X181470688Y-105265045D01*
X181422021Y-105337880D01*
X181360080Y-105399821D01*
X181287245Y-105448488D01*
X181287244Y-105448489D01*
X181287243Y-105448489D01*
X181206314Y-105482011D01*
X181120401Y-105499100D01*
X181032799Y-105499100D01*
X180946886Y-105482011D01*
X180865957Y-105448489D01*
X180865956Y-105448489D01*
X180865955Y-105448488D01*
X180793120Y-105399821D01*
X180731179Y-105337880D01*
X180682512Y-105265045D01*
X180648989Y-105184114D01*
X180631900Y-105098199D01*
X180631900Y-105010601D01*
X180648989Y-104924686D01*
X180682512Y-104843755D01*
X180731179Y-104770920D01*
X180793120Y-104708979D01*
X180865955Y-104660312D01*
X180946886Y-104626789D01*
X181032799Y-104609700D01*
X181120401Y-104609700D01*
X181206314Y-104626789D01*
X181206314Y-104626789D01*
G37*
G36*
X182476314Y-103356789D02*
G01*
X182557245Y-103390312D01*
X182630080Y-103438979D01*
X182692021Y-103500920D01*
X182740688Y-103573755D01*
X182774211Y-103654686D01*
X182791300Y-103740601D01*
X182791300Y-103828199D01*
X182774211Y-103914114D01*
X182740688Y-103995045D01*
X182692021Y-104067880D01*
X182630080Y-104129821D01*
X182557245Y-104178488D01*
X182557244Y-104178489D01*
X182557243Y-104178489D01*
X182476314Y-104212011D01*
X182390401Y-104229100D01*
X182302799Y-104229100D01*
X182216886Y-104212011D01*
X182135957Y-104178489D01*
X182135956Y-104178489D01*
X182135955Y-104178488D01*
X182063120Y-104129821D01*
X182001179Y-104067880D01*
X181952512Y-103995045D01*
X181918989Y-103914114D01*
X181901900Y-103828199D01*
X181901900Y-103740601D01*
X181918989Y-103654686D01*
X181952512Y-103573755D01*
X182001179Y-103500920D01*
X182063120Y-103438979D01*
X182135955Y-103390312D01*
X182216886Y-103356789D01*
X182302799Y-103339700D01*
X182390401Y-103339700D01*
X182476314Y-103356789D01*
X182476314Y-103356789D01*
G37*
G36*
X181206314Y-103356789D02*
G01*
X181287245Y-103390312D01*
X181360080Y-103438979D01*
X181422021Y-103500920D01*
X181470688Y-103573755D01*
X181504211Y-103654686D01*
X181521300Y-103740601D01*
X181521300Y-103828199D01*
X181504211Y-103914114D01*
X181470688Y-103995045D01*
X181422021Y-104067880D01*
X181360080Y-104129821D01*
X181287245Y-104178488D01*
X181287244Y-104178489D01*
X181287243Y-104178489D01*
X181206314Y-104212011D01*
X181120401Y-104229100D01*
X181032799Y-104229100D01*
X180946886Y-104212011D01*
X180865957Y-104178489D01*
X180865956Y-104178489D01*
X180865955Y-104178488D01*
X180793120Y-104129821D01*
X180731179Y-104067880D01*
X180682512Y-103995045D01*
X180648989Y-103914114D01*
X180631900Y-103828199D01*
X180631900Y-103740601D01*
X180648989Y-103654686D01*
X180682512Y-103573755D01*
X180731179Y-103500920D01*
X180793120Y-103438979D01*
X180865955Y-103390312D01*
X180946886Y-103356789D01*
X181032799Y-103339700D01*
X181120401Y-103339700D01*
X181206314Y-103356789D01*
X181206314Y-103356789D01*
G37*
G36*
X184493209Y-101299746D02*
G01*
X184612842Y-101323543D01*
X184838226Y-101416900D01*
X185041066Y-101552433D01*
X185213567Y-101724934D01*
X185349100Y-101927774D01*
X185442457Y-102153158D01*
X185490050Y-102392423D01*
X185490050Y-102636377D01*
X185442457Y-102875642D01*
X185391558Y-102998524D01*
X185353647Y-103090050D01*
X185349100Y-103101026D01*
X185213567Y-103303866D01*
X185041066Y-103476367D01*
X184838226Y-103611900D01*
X184612842Y-103705257D01*
X184493210Y-103729053D01*
X184373578Y-103752850D01*
X184129622Y-103752850D01*
X184009990Y-103729053D01*
X183890358Y-103705257D01*
X183664974Y-103611900D01*
X183462134Y-103476367D01*
X183289633Y-103303866D01*
X183154100Y-103101026D01*
X183149554Y-103090050D01*
X183111642Y-102998524D01*
X183060743Y-102875642D01*
X183013150Y-102636377D01*
X183013150Y-102392423D01*
X183060743Y-102153158D01*
X183154100Y-101927774D01*
X183289633Y-101724934D01*
X183462134Y-101552433D01*
X183664974Y-101416900D01*
X183890358Y-101323543D01*
X184009990Y-101299747D01*
X184129622Y-101275950D01*
X184373578Y-101275950D01*
X184493209Y-101299746D01*
X184493209Y-101299746D01*
G37*
G36*
X179413209Y-101299746D02*
G01*
X179532842Y-101323543D01*
X179758226Y-101416900D01*
X179961066Y-101552433D01*
X180133567Y-101724934D01*
X180269100Y-101927774D01*
X180362457Y-102153158D01*
X180410050Y-102392423D01*
X180410050Y-102636377D01*
X180362457Y-102875642D01*
X180311558Y-102998524D01*
X180273647Y-103090050D01*
X180269100Y-103101026D01*
X180133567Y-103303866D01*
X179961066Y-103476367D01*
X179758226Y-103611900D01*
X179532842Y-103705257D01*
X179413210Y-103729053D01*
X179293578Y-103752850D01*
X179049622Y-103752850D01*
X178929990Y-103729053D01*
X178810358Y-103705257D01*
X178584974Y-103611900D01*
X178382134Y-103476367D01*
X178209633Y-103303866D01*
X178074100Y-103101026D01*
X178069554Y-103090050D01*
X178031642Y-102998524D01*
X177980743Y-102875642D01*
X177933150Y-102636377D01*
X177933150Y-102392423D01*
X177980743Y-102153158D01*
X178074100Y-101927774D01*
X178209633Y-101724934D01*
X178382134Y-101552433D01*
X178584974Y-101416900D01*
X178810358Y-101323543D01*
X178929990Y-101299747D01*
X179049622Y-101275950D01*
X179293578Y-101275950D01*
X179413209Y-101299746D01*
X179413209Y-101299746D01*
G37*
G36*
X217156600Y-103652600D02*
G01*
X215354600Y-103652600D01*
X215354600Y-102650600D01*
X217156600Y-102650600D01*
X217156600Y-103652600D01*
X217156600Y-103652600D01*
G37*
G36*
X207734100Y-103124200D02*
G01*
X206489100Y-103124200D01*
X206489100Y-102514200D01*
X207734100Y-102514200D01*
X207734100Y-103124200D01*
X207734100Y-103124200D01*
G37*
G36*
X214084100Y-103124200D02*
G01*
X212839100Y-103124200D01*
X212839100Y-102514200D01*
X214084100Y-102514200D01*
X214084100Y-103124200D01*
X214084100Y-103124200D01*
G37*
G36*
X181818178Y-101978597D02*
G01*
X181870950Y-101989094D01*
X181970370Y-102030275D01*
X182059846Y-102090061D01*
X182135939Y-102166154D01*
X182195725Y-102255630D01*
X182236906Y-102355050D01*
X182257900Y-102460594D01*
X182257900Y-102568206D01*
X182236906Y-102673750D01*
X182195725Y-102773170D01*
X182135939Y-102862646D01*
X182059846Y-102938739D01*
X181970370Y-102998525D01*
X181870950Y-103039706D01*
X181818178Y-103050203D01*
X181765407Y-103060700D01*
X181657793Y-103060700D01*
X181605022Y-103050203D01*
X181552250Y-103039706D01*
X181452830Y-102998525D01*
X181363354Y-102938739D01*
X181287261Y-102862646D01*
X181227475Y-102773170D01*
X181186294Y-102673750D01*
X181165300Y-102568206D01*
X181165300Y-102460594D01*
X181186294Y-102355050D01*
X181227475Y-102255630D01*
X181287261Y-102166154D01*
X181363354Y-102090061D01*
X181452830Y-102030275D01*
X181552250Y-101989094D01*
X181605022Y-101978597D01*
X181657793Y-101968100D01*
X181765407Y-101968100D01*
X181818178Y-101978597D01*
X181818178Y-101978597D01*
G37*
G36*
X214084100Y-101854200D02*
G01*
X212839100Y-101854200D01*
X212839100Y-101244200D01*
X214084100Y-101244200D01*
X214084100Y-101854200D01*
X214084100Y-101854200D01*
G37*
G36*
X207734100Y-101854200D02*
G01*
X206489100Y-101854200D01*
X206489100Y-101244200D01*
X207734100Y-101244200D01*
X207734100Y-101854200D01*
X207734100Y-101854200D01*
G37*
G36*
X239603000Y-101539000D02*
G01*
X238801000Y-101539000D01*
X238801000Y-100137000D01*
X239603000Y-100137000D01*
X239603000Y-101539000D01*
X239603000Y-101539000D01*
G37*
G36*
X241513000Y-101539000D02*
G01*
X240711000Y-101539000D01*
X240711000Y-100137000D01*
X241513000Y-100137000D01*
X241513000Y-101539000D01*
X241513000Y-101539000D01*
G37*
G36*
X243413000Y-101539000D02*
G01*
X242611000Y-101539000D01*
X242611000Y-100137000D01*
X243413000Y-100137000D01*
X243413000Y-101539000D01*
X243413000Y-101539000D01*
G37*
G36*
X237703000Y-101539000D02*
G01*
X236901000Y-101539000D01*
X236901000Y-100137000D01*
X237703000Y-100137000D01*
X237703000Y-101539000D01*
X237703000Y-101539000D01*
G37*
G36*
X217156600Y-100752600D02*
G01*
X215354600Y-100752600D01*
X215354600Y-99750600D01*
X217156600Y-99750600D01*
X217156600Y-100752600D01*
X217156600Y-100752600D01*
G37*
G36*
X214084100Y-100584200D02*
G01*
X212839100Y-100584200D01*
X212839100Y-99974200D01*
X214084100Y-99974200D01*
X214084100Y-100584200D01*
X214084100Y-100584200D01*
G37*
G36*
X207734100Y-100584200D02*
G01*
X206489100Y-100584200D01*
X206489100Y-99974200D01*
X207734100Y-99974200D01*
X207734100Y-100584200D01*
X207734100Y-100584200D01*
G37*
G36*
X214084100Y-99314200D02*
G01*
X212839100Y-99314200D01*
X212839100Y-98704200D01*
X214084100Y-98704200D01*
X214084100Y-99314200D01*
X214084100Y-99314200D01*
G37*
G36*
X207734100Y-99314200D02*
G01*
X206489100Y-99314200D01*
X206489100Y-98704200D01*
X207734100Y-98704200D01*
X207734100Y-99314200D01*
X207734100Y-99314200D01*
G37*
G36*
X237664900Y-99253000D02*
G01*
X236862900Y-99253000D01*
X236862900Y-97851000D01*
X237664900Y-97851000D01*
X237664900Y-99253000D01*
X237664900Y-99253000D01*
G37*
G36*
X239564900Y-99253000D02*
G01*
X238762900Y-99253000D01*
X238762900Y-97851000D01*
X239564900Y-97851000D01*
X239564900Y-99253000D01*
X239564900Y-99253000D01*
G37*
G36*
X184205600Y-98745000D02*
G01*
X183403600Y-98745000D01*
X183403600Y-97343000D01*
X184205600Y-97343000D01*
X184205600Y-98745000D01*
X184205600Y-98745000D01*
G37*
G36*
X182305600Y-98745000D02*
G01*
X181503600Y-98745000D01*
X181503600Y-97343000D01*
X182305600Y-97343000D01*
X182305600Y-98745000D01*
X182305600Y-98745000D01*
G37*
G36*
X237667440Y-96967000D02*
G01*
X236865440Y-96967000D01*
X236865440Y-95565000D01*
X237667440Y-95565000D01*
X237667440Y-96967000D01*
X237667440Y-96967000D01*
G37*
G36*
X239567440Y-96967000D02*
G01*
X238765440Y-96967000D01*
X238765440Y-95565000D01*
X239567440Y-95565000D01*
X239567440Y-96967000D01*
X239567440Y-96967000D01*
G37*
G36*
X214490500Y-94920000D02*
G01*
X213245500Y-94920000D01*
X213245500Y-94310000D01*
X214490500Y-94310000D01*
X214490500Y-94920000D01*
X214490500Y-94920000D01*
G37*
G36*
X207378500Y-94920000D02*
G01*
X206133500Y-94920000D01*
X206133500Y-94310000D01*
X207378500Y-94310000D01*
X207378500Y-94920000D01*
X207378500Y-94920000D01*
G37*
G36*
X243413000Y-94681000D02*
G01*
X242611000Y-94681000D01*
X242611000Y-93279000D01*
X243413000Y-93279000D01*
X243413000Y-94681000D01*
X243413000Y-94681000D01*
G37*
G36*
X239587760Y-94681000D02*
G01*
X238785760Y-94681000D01*
X238785760Y-93279000D01*
X239587760Y-93279000D01*
X239587760Y-94681000D01*
X239587760Y-94681000D01*
G37*
G36*
X241513000Y-94681000D02*
G01*
X240711000Y-94681000D01*
X240711000Y-93279000D01*
X241513000Y-93279000D01*
X241513000Y-94681000D01*
X241513000Y-94681000D01*
G37*
G36*
X237687760Y-94681000D02*
G01*
X236885760Y-94681000D01*
X236885760Y-93279000D01*
X237687760Y-93279000D01*
X237687760Y-94681000D01*
X237687760Y-94681000D01*
G37*
G36*
X160350400Y-93853200D02*
G01*
X158216400Y-93853200D01*
X158216400Y-89941200D01*
X160350400Y-89941200D01*
X160350400Y-93853200D01*
X160350400Y-93853200D01*
G37*
G36*
X207378500Y-93650000D02*
G01*
X206133500Y-93650000D01*
X206133500Y-93040000D01*
X207378500Y-93040000D01*
X207378500Y-93650000D01*
X207378500Y-93650000D01*
G37*
G36*
X214490500Y-93650000D02*
G01*
X213245500Y-93650000D01*
X213245500Y-93040000D01*
X214490500Y-93040000D01*
X214490500Y-93650000D01*
X214490500Y-93650000D01*
G37*
G36*
X214490500Y-92380000D02*
G01*
X213245500Y-92380000D01*
X213245500Y-91770000D01*
X214490500Y-91770000D01*
X214490500Y-92380000D01*
X214490500Y-92380000D01*
G37*
G36*
X207378500Y-92380000D02*
G01*
X206133500Y-92380000D01*
X206133500Y-91770000D01*
X207378500Y-91770000D01*
X207378500Y-92380000D01*
X207378500Y-92380000D01*
G37*
G36*
X204913800Y-91155800D02*
G01*
X203111800Y-91155800D01*
X203111800Y-90153800D01*
X204913800Y-90153800D01*
X204913800Y-91155800D01*
X204913800Y-91155800D01*
G37*
G36*
X214490500Y-91110000D02*
G01*
X213245500Y-91110000D01*
X213245500Y-90500000D01*
X214490500Y-90500000D01*
X214490500Y-91110000D01*
X214490500Y-91110000D01*
G37*
G36*
X207378500Y-91110000D02*
G01*
X206133500Y-91110000D01*
X206133500Y-90500000D01*
X207378500Y-90500000D01*
X207378500Y-91110000D01*
X207378500Y-91110000D01*
G37*
G36*
X217286800Y-90555800D02*
G01*
X215884800Y-90555800D01*
X215884800Y-89753800D01*
X217286800Y-89753800D01*
X217286800Y-90555800D01*
X217286800Y-90555800D01*
G37*
G36*
X239009167Y-87220439D02*
G01*
X239210298Y-87281451D01*
X239395661Y-87380530D01*
X239558133Y-87513867D01*
X239618236Y-87587102D01*
X239691471Y-87676339D01*
X239744682Y-87775890D01*
X239790549Y-87861701D01*
X239851561Y-88062832D01*
X239867000Y-88219589D01*
X239867000Y-89340411D01*
X239851561Y-89497168D01*
X239790549Y-89698299D01*
X239760883Y-89753800D01*
X239691471Y-89883661D01*
X239558133Y-90046133D01*
X239395661Y-90179471D01*
X239296110Y-90232682D01*
X239210299Y-90278549D01*
X239009168Y-90339561D01*
X238800000Y-90360162D01*
X238590833Y-90339561D01*
X238389702Y-90278549D01*
X238303891Y-90232682D01*
X238204340Y-90179471D01*
X238041868Y-90046133D01*
X237908530Y-89883660D01*
X237839118Y-89753800D01*
X237809452Y-89698299D01*
X237748439Y-89497168D01*
X237733000Y-89340411D01*
X237733000Y-88219590D01*
X237748439Y-88062833D01*
X237809451Y-87861702D01*
X237908530Y-87676339D01*
X238041867Y-87513867D01*
X238115102Y-87453764D01*
X238204339Y-87380529D01*
X238303890Y-87327318D01*
X238389701Y-87281451D01*
X238590832Y-87220439D01*
X238800000Y-87199838D01*
X239009167Y-87220439D01*
X239009167Y-87220439D01*
G37*
G36*
X244009167Y-87220439D02*
G01*
X244210298Y-87281451D01*
X244395661Y-87380530D01*
X244558133Y-87513867D01*
X244618236Y-87587102D01*
X244691471Y-87676339D01*
X244744682Y-87775890D01*
X244790549Y-87861701D01*
X244851561Y-88062832D01*
X244867000Y-88219589D01*
X244867000Y-89340411D01*
X244851561Y-89497168D01*
X244790549Y-89698299D01*
X244760883Y-89753800D01*
X244691471Y-89883661D01*
X244558133Y-90046133D01*
X244395661Y-90179471D01*
X244296110Y-90232682D01*
X244210299Y-90278549D01*
X244009168Y-90339561D01*
X243800000Y-90360162D01*
X243590833Y-90339561D01*
X243389702Y-90278549D01*
X243303891Y-90232682D01*
X243204340Y-90179471D01*
X243041868Y-90046133D01*
X242908530Y-89883660D01*
X242839118Y-89753800D01*
X242809452Y-89698299D01*
X242748439Y-89497168D01*
X242733000Y-89340411D01*
X242733000Y-88219590D01*
X242748439Y-88062833D01*
X242809451Y-87861702D01*
X242908530Y-87676339D01*
X243041867Y-87513867D01*
X243115102Y-87453764D01*
X243204339Y-87380529D01*
X243303890Y-87327318D01*
X243389701Y-87281451D01*
X243590832Y-87220439D01*
X243800000Y-87199838D01*
X244009167Y-87220439D01*
X244009167Y-87220439D01*
G37*
G36*
X241509167Y-87220439D02*
G01*
X241710298Y-87281451D01*
X241895661Y-87380530D01*
X242058133Y-87513867D01*
X242118236Y-87587102D01*
X242191471Y-87676339D01*
X242244682Y-87775890D01*
X242290549Y-87861701D01*
X242351561Y-88062832D01*
X242367000Y-88219589D01*
X242367000Y-89340411D01*
X242351561Y-89497168D01*
X242290549Y-89698299D01*
X242260883Y-89753800D01*
X242191471Y-89883661D01*
X242058133Y-90046133D01*
X241895661Y-90179471D01*
X241796110Y-90232682D01*
X241710299Y-90278549D01*
X241509168Y-90339561D01*
X241300000Y-90360162D01*
X241090833Y-90339561D01*
X240889702Y-90278549D01*
X240803891Y-90232682D01*
X240704340Y-90179471D01*
X240541868Y-90046133D01*
X240408530Y-89883660D01*
X240339118Y-89753800D01*
X240309452Y-89698299D01*
X240248439Y-89497168D01*
X240233000Y-89340411D01*
X240233000Y-88219590D01*
X240248439Y-88062833D01*
X240309451Y-87861702D01*
X240408530Y-87676339D01*
X240541867Y-87513867D01*
X240615102Y-87453764D01*
X240704339Y-87380529D01*
X240803890Y-87327318D01*
X240889701Y-87281451D01*
X241090832Y-87220439D01*
X241300000Y-87199838D01*
X241509167Y-87220439D01*
X241509167Y-87220439D01*
G37*
G36*
X207378500Y-89840000D02*
G01*
X206133500Y-89840000D01*
X206133500Y-89230000D01*
X207378500Y-89230000D01*
X207378500Y-89840000D01*
X207378500Y-89840000D01*
G37*
G36*
X214490500Y-89840000D02*
G01*
X213245500Y-89840000D01*
X213245500Y-89230000D01*
X214490500Y-89230000D01*
X214490500Y-89840000D01*
X214490500Y-89840000D01*
G37*
G36*
X227431800Y-89027200D02*
G01*
X223519800Y-89027200D01*
X223519800Y-86893200D01*
X227431800Y-86893200D01*
X227431800Y-89027200D01*
X227431800Y-89027200D01*
G37*
G36*
X217286800Y-88655800D02*
G01*
X215884800Y-88655800D01*
X215884800Y-87853800D01*
X217286800Y-87853800D01*
X217286800Y-88655800D01*
X217286800Y-88655800D01*
G37*
G36*
X214490500Y-88570000D02*
G01*
X213245500Y-88570000D01*
X213245500Y-87960000D01*
X214490500Y-87960000D01*
X214490500Y-88570000D01*
X214490500Y-88570000D01*
G37*
G36*
X207378500Y-88570000D02*
G01*
X206133500Y-88570000D01*
X206133500Y-87960000D01*
X207378500Y-87960000D01*
X207378500Y-88570000D01*
X207378500Y-88570000D01*
G37*
G36*
X204913800Y-88255800D02*
G01*
X203111800Y-88255800D01*
X203111800Y-87253800D01*
X204913800Y-87253800D01*
X204913800Y-88255800D01*
X204913800Y-88255800D01*
G37*
G36*
X214490500Y-87300000D02*
G01*
X213245500Y-87300000D01*
X213245500Y-86690000D01*
X214490500Y-86690000D01*
X214490500Y-87300000D01*
X214490500Y-87300000D01*
G37*
G36*
X207378500Y-87300000D02*
G01*
X206133500Y-87300000D01*
X206133500Y-86690000D01*
X207378500Y-86690000D01*
X207378500Y-87300000D01*
X207378500Y-87300000D01*
G37*
G36*
X247807924Y-76186490D02*
G01*
X248203214Y-76306400D01*
X248296332Y-76334647D01*
X248746445Y-76575238D01*
X248746447Y-76575239D01*
X248746446Y-76575239D01*
X249140978Y-76899022D01*
X249415529Y-77233563D01*
X249464762Y-77293554D01*
X249705353Y-77743667D01*
X249705353Y-77743668D01*
X249705354Y-77743670D01*
X249853510Y-78232075D01*
X249891000Y-78612719D01*
X249891000Y-83947281D01*
X249853510Y-84327925D01*
X249705354Y-84816330D01*
X249705353Y-84816333D01*
X249464762Y-85266446D01*
X249140978Y-85660978D01*
X248746446Y-85984762D01*
X248296333Y-86225353D01*
X248296330Y-86225354D01*
X247807925Y-86373510D01*
X247300000Y-86423536D01*
X246792076Y-86373510D01*
X246303671Y-86225354D01*
X246303668Y-86225353D01*
X245853555Y-85984762D01*
X245459023Y-85660978D01*
X245135239Y-85266446D01*
X244894648Y-84816333D01*
X244894647Y-84816330D01*
X244746491Y-84327925D01*
X244709001Y-83947281D01*
X244709000Y-78612720D01*
X244746490Y-78232076D01*
X244894646Y-77743671D01*
X244894647Y-77743668D01*
X245135238Y-77293555D01*
X245394043Y-76978200D01*
X245459022Y-76899022D01*
X245853553Y-76575239D01*
X245853552Y-76575239D01*
X245853554Y-76575238D01*
X246303667Y-76334647D01*
X246396785Y-76306400D01*
X246792075Y-76186490D01*
X247300000Y-76136464D01*
X247807924Y-76186490D01*
X247807924Y-76186490D01*
G37*
G36*
X235807924Y-76186490D02*
G01*
X236203214Y-76306400D01*
X236296332Y-76334647D01*
X236746445Y-76575238D01*
X236746447Y-76575239D01*
X236746446Y-76575239D01*
X237140978Y-76899022D01*
X237415529Y-77233563D01*
X237464762Y-77293554D01*
X237705353Y-77743667D01*
X237705353Y-77743668D01*
X237705354Y-77743670D01*
X237853510Y-78232075D01*
X237891000Y-78612719D01*
X237891000Y-83947281D01*
X237853510Y-84327925D01*
X237705354Y-84816330D01*
X237705353Y-84816333D01*
X237464762Y-85266446D01*
X237140978Y-85660978D01*
X236746446Y-85984762D01*
X236296333Y-86225353D01*
X236296330Y-86225354D01*
X235807925Y-86373510D01*
X235300000Y-86423536D01*
X234792076Y-86373510D01*
X234303671Y-86225354D01*
X234303668Y-86225353D01*
X233853555Y-85984762D01*
X233459023Y-85660978D01*
X233135239Y-85266446D01*
X232894648Y-84816333D01*
X232894647Y-84816330D01*
X232746491Y-84327925D01*
X232709001Y-83947281D01*
X232709000Y-78612720D01*
X232746490Y-78232076D01*
X232894646Y-77743671D01*
X232894647Y-77743668D01*
X233135238Y-77293555D01*
X233394043Y-76978200D01*
X233459022Y-76899022D01*
X233853553Y-76575239D01*
X233853552Y-76575239D01*
X233853554Y-76575238D01*
X234303667Y-76334647D01*
X234396785Y-76306400D01*
X234792075Y-76186490D01*
X235300000Y-76136464D01*
X235807924Y-76186490D01*
X235807924Y-76186490D01*
G37*
G36*
X207378500Y-86030000D02*
G01*
X206133500Y-86030000D01*
X206133500Y-85420000D01*
X207378500Y-85420000D01*
X207378500Y-86030000D01*
X207378500Y-86030000D01*
G37*
G36*
X214490500Y-86030000D02*
G01*
X213245500Y-86030000D01*
X213245500Y-85420000D01*
X214490500Y-85420000D01*
X214490500Y-86030000D01*
X214490500Y-86030000D01*
G37*
G36*
X214490500Y-84760000D02*
G01*
X213245500Y-84760000D01*
X213245500Y-84150000D01*
X214490500Y-84150000D01*
X214490500Y-84760000D01*
X214490500Y-84760000D01*
G37*
G36*
X207378500Y-84760000D02*
G01*
X206133500Y-84760000D01*
X206133500Y-84150000D01*
X207378500Y-84150000D01*
X207378500Y-84760000D01*
X207378500Y-84760000D01*
G37*
G36*
X160085600Y-84393600D02*
G01*
X158633600Y-84393600D01*
X158633600Y-82941600D01*
X160085600Y-82941600D01*
X160085600Y-84393600D01*
X160085600Y-84393600D01*
G37*
G36*
X227355600Y-83566200D02*
G01*
X223443600Y-83566200D01*
X223443600Y-81432200D01*
X227355600Y-81432200D01*
X227355600Y-83566200D01*
X227355600Y-83566200D01*
G37*
G36*
X207378500Y-83490000D02*
G01*
X206133500Y-83490000D01*
X206133500Y-82880000D01*
X207378500Y-82880000D01*
X207378500Y-83490000D01*
X207378500Y-83490000D01*
G37*
G36*
X214490500Y-83490000D02*
G01*
X213245500Y-83490000D01*
X213245500Y-82880000D01*
X214490500Y-82880000D01*
X214490500Y-83490000D01*
X214490500Y-83490000D01*
G37*
G36*
X159430813Y-80945102D02*
G01*
X159501921Y-80952105D01*
X159638772Y-80993619D01*
X159638775Y-80993620D01*
X159764894Y-81061032D01*
X159875443Y-81151757D01*
X159966168Y-81262306D01*
X160033580Y-81388425D01*
X160033581Y-81388428D01*
X160075095Y-81525279D01*
X160089112Y-81667600D01*
X160075095Y-81809921D01*
X160033581Y-81946772D01*
X160033580Y-81946775D01*
X159966168Y-82072894D01*
X159875443Y-82183443D01*
X159764894Y-82274168D01*
X159638775Y-82341580D01*
X159638772Y-82341581D01*
X159501921Y-82383095D01*
X159430813Y-82390098D01*
X159395260Y-82393600D01*
X159323940Y-82393600D01*
X159288387Y-82390098D01*
X159217279Y-82383095D01*
X159080428Y-82341581D01*
X159080425Y-82341580D01*
X158954306Y-82274168D01*
X158843757Y-82183443D01*
X158753032Y-82072894D01*
X158685620Y-81946775D01*
X158685619Y-81946772D01*
X158644105Y-81809921D01*
X158630088Y-81667600D01*
X158644105Y-81525279D01*
X158685619Y-81388428D01*
X158685620Y-81388425D01*
X158753032Y-81262306D01*
X158843757Y-81151757D01*
X158954306Y-81061032D01*
X159080425Y-80993620D01*
X159080428Y-80993619D01*
X159217279Y-80952105D01*
X159288387Y-80945102D01*
X159323940Y-80941600D01*
X159395260Y-80941600D01*
X159430813Y-80945102D01*
X159430813Y-80945102D01*
G37*
G36*
X207378500Y-82220000D02*
G01*
X206133500Y-82220000D01*
X206133500Y-81610000D01*
X207378500Y-81610000D01*
X207378500Y-82220000D01*
X207378500Y-82220000D01*
G37*
G36*
X214490500Y-82220000D02*
G01*
X213245500Y-82220000D01*
X213245500Y-81610000D01*
X214490500Y-81610000D01*
X214490500Y-82220000D01*
X214490500Y-82220000D01*
G37*
G36*
X214490500Y-80950000D02*
G01*
X213245500Y-80950000D01*
X213245500Y-80340000D01*
X214490500Y-80340000D01*
X214490500Y-80950000D01*
X214490500Y-80950000D01*
G37*
G36*
X207378500Y-80950000D02*
G01*
X206133500Y-80950000D01*
X206133500Y-80340000D01*
X207378500Y-80340000D01*
X207378500Y-80950000D01*
X207378500Y-80950000D01*
G37*
G36*
X217309000Y-79878200D02*
G01*
X215507000Y-79878200D01*
X215507000Y-78876200D01*
X217309000Y-78876200D01*
X217309000Y-79878200D01*
X217309000Y-79878200D01*
G37*
G36*
X214490500Y-79680000D02*
G01*
X213245500Y-79680000D01*
X213245500Y-79070000D01*
X214490500Y-79070000D01*
X214490500Y-79680000D01*
X214490500Y-79680000D01*
G37*
G36*
X207378500Y-79680000D02*
G01*
X206133500Y-79680000D01*
X206133500Y-79070000D01*
X207378500Y-79070000D01*
X207378500Y-79680000D01*
X207378500Y-79680000D01*
G37*
G36*
X214490500Y-78410000D02*
G01*
X213245500Y-78410000D01*
X213245500Y-77800000D01*
X214490500Y-77800000D01*
X214490500Y-78410000D01*
X214490500Y-78410000D01*
G37*
G36*
X207378500Y-78410000D02*
G01*
X206133500Y-78410000D01*
X206133500Y-77800000D01*
X207378500Y-77800000D01*
X207378500Y-78410000D01*
X207378500Y-78410000D01*
G37*
G36*
X160136800Y-77373200D02*
G01*
X158734800Y-77373200D01*
X158734800Y-76571200D01*
X160136800Y-76571200D01*
X160136800Y-77373200D01*
X160136800Y-77373200D01*
G37*
G36*
X217309000Y-76978200D02*
G01*
X215507000Y-76978200D01*
X215507000Y-75976200D01*
X217309000Y-75976200D01*
X217309000Y-76978200D01*
X217309000Y-76978200D01*
G37*
G36*
X203596200Y-76306400D02*
G01*
X202194200Y-76306400D01*
X202194200Y-75504400D01*
X203596200Y-75504400D01*
X203596200Y-76306400D01*
X203596200Y-76306400D01*
G37*
G36*
X225130000Y-75885000D02*
G01*
X224328000Y-75885000D01*
X224328000Y-74483000D01*
X225130000Y-74483000D01*
X225130000Y-75885000D01*
X225130000Y-75885000D01*
G37*
G36*
X227030000Y-75885000D02*
G01*
X226228000Y-75885000D01*
X226228000Y-74483000D01*
X227030000Y-74483000D01*
X227030000Y-75885000D01*
X227030000Y-75885000D01*
G37*
G36*
X186522000Y-75783400D02*
G01*
X185720000Y-75783400D01*
X185720000Y-74381400D01*
X186522000Y-74381400D01*
X186522000Y-75783400D01*
X186522000Y-75783400D01*
G37*
G36*
X188422000Y-75783400D02*
G01*
X187620000Y-75783400D01*
X187620000Y-74381400D01*
X188422000Y-74381400D01*
X188422000Y-75783400D01*
X188422000Y-75783400D01*
G37*
G36*
X160136800Y-75473200D02*
G01*
X158734800Y-75473200D01*
X158734800Y-74671200D01*
X160136800Y-74671200D01*
X160136800Y-75473200D01*
X160136800Y-75473200D01*
G37*
G36*
X239009167Y-72220439D02*
G01*
X239210298Y-72281451D01*
X239395661Y-72380530D01*
X239558133Y-72513867D01*
X239618236Y-72587102D01*
X239691471Y-72676339D01*
X239744682Y-72775890D01*
X239790549Y-72861701D01*
X239851561Y-73062832D01*
X239867000Y-73219589D01*
X239867000Y-74340411D01*
X239851561Y-74497168D01*
X239790549Y-74698299D01*
X239744682Y-74784110D01*
X239691471Y-74883661D01*
X239558133Y-75046133D01*
X239395661Y-75179471D01*
X239296110Y-75232682D01*
X239210299Y-75278549D01*
X239009168Y-75339561D01*
X238800000Y-75360162D01*
X238590833Y-75339561D01*
X238389702Y-75278549D01*
X238303891Y-75232682D01*
X238204340Y-75179471D01*
X238041868Y-75046133D01*
X237908530Y-74883660D01*
X237855024Y-74783558D01*
X237809452Y-74698299D01*
X237748439Y-74497168D01*
X237733000Y-74340411D01*
X237733000Y-73219590D01*
X237748439Y-73062833D01*
X237809451Y-72861702D01*
X237908530Y-72676339D01*
X238041867Y-72513867D01*
X238115102Y-72453764D01*
X238204339Y-72380529D01*
X238310847Y-72323600D01*
X238389701Y-72281451D01*
X238590832Y-72220439D01*
X238800000Y-72199838D01*
X239009167Y-72220439D01*
X239009167Y-72220439D01*
G37*
G36*
X244009167Y-72220439D02*
G01*
X244210298Y-72281451D01*
X244395661Y-72380530D01*
X244558133Y-72513867D01*
X244618236Y-72587102D01*
X244691471Y-72676339D01*
X244744682Y-72775890D01*
X244790549Y-72861701D01*
X244851561Y-73062832D01*
X244867000Y-73219589D01*
X244867000Y-74340411D01*
X244851561Y-74497168D01*
X244790549Y-74698299D01*
X244744682Y-74784110D01*
X244691471Y-74883661D01*
X244558133Y-75046133D01*
X244395661Y-75179471D01*
X244296110Y-75232682D01*
X244210299Y-75278549D01*
X244009168Y-75339561D01*
X243800000Y-75360162D01*
X243590833Y-75339561D01*
X243389702Y-75278549D01*
X243303891Y-75232682D01*
X243204340Y-75179471D01*
X243041868Y-75046133D01*
X242908530Y-74883660D01*
X242855024Y-74783558D01*
X242809452Y-74698299D01*
X242748439Y-74497168D01*
X242733000Y-74340411D01*
X242733000Y-73219590D01*
X242748439Y-73062833D01*
X242809451Y-72861702D01*
X242908530Y-72676339D01*
X243041867Y-72513867D01*
X243115102Y-72453764D01*
X243204339Y-72380529D01*
X243310847Y-72323600D01*
X243389701Y-72281451D01*
X243590832Y-72220439D01*
X243800000Y-72199838D01*
X244009167Y-72220439D01*
X244009167Y-72220439D01*
G37*
G36*
X203596200Y-74406400D02*
G01*
X202194200Y-74406400D01*
X202194200Y-73604400D01*
X203596200Y-73604400D01*
X203596200Y-74406400D01*
X203596200Y-74406400D01*
G37*
G36*
X231815600Y-74223600D02*
G01*
X230413600Y-74223600D01*
X230413600Y-73421600D01*
X231815600Y-73421600D01*
X231815600Y-74223600D01*
X231815600Y-74223600D01*
G37*
G36*
X226116000Y-73091000D02*
G01*
X225364000Y-73091000D01*
X225364000Y-71769000D01*
X226116000Y-71769000D01*
X226116000Y-73091000D01*
X226116000Y-73091000D01*
G37*
G36*
X224216000Y-73091000D02*
G01*
X223464000Y-73091000D01*
X223464000Y-71769000D01*
X224216000Y-71769000D01*
X224216000Y-73091000D01*
X224216000Y-73091000D01*
G37*
G36*
X181325800Y-72910000D02*
G01*
X180323800Y-72910000D01*
X180323800Y-71108000D01*
X181325800Y-71108000D01*
X181325800Y-72910000D01*
X181325800Y-72910000D01*
G37*
G36*
X178425800Y-72910000D02*
G01*
X177423800Y-72910000D01*
X177423800Y-71108000D01*
X178425800Y-71108000D01*
X178425800Y-72910000D01*
X178425800Y-72910000D01*
G37*
G36*
X185653400Y-72811600D02*
G01*
X184851400Y-72811600D01*
X184851400Y-71409600D01*
X185653400Y-71409600D01*
X185653400Y-72811600D01*
X185653400Y-72811600D01*
G37*
G36*
X183753400Y-72811600D02*
G01*
X182951400Y-72811600D01*
X182951400Y-71409600D01*
X183753400Y-71409600D01*
X183753400Y-72811600D01*
X183753400Y-72811600D01*
G37*
G36*
X231815600Y-72323600D02*
G01*
X230413600Y-72323600D01*
X230413600Y-71521600D01*
X231815600Y-71521600D01*
X231815600Y-72323600D01*
X231815600Y-72323600D01*
G37*
G36*
X226116000Y-70471000D02*
G01*
X223464000Y-70471000D01*
X223464000Y-69149000D01*
X226116000Y-69149000D01*
X226116000Y-70471000D01*
X226116000Y-70471000D01*
G37*
G36*
X181154564Y-67315389D02*
G01*
X181345833Y-67394615D01*
X181345835Y-67394616D01*
X181517973Y-67509635D01*
X181664365Y-67656027D01*
X181779385Y-67828167D01*
X181858611Y-68019436D01*
X181899000Y-68222484D01*
X181899000Y-68429516D01*
X181858611Y-68632564D01*
X181779385Y-68823833D01*
X181779384Y-68823835D01*
X181664365Y-68995973D01*
X181517973Y-69142365D01*
X181345835Y-69257384D01*
X181345834Y-69257385D01*
X181345833Y-69257385D01*
X181154564Y-69336611D01*
X180951516Y-69377000D01*
X180744484Y-69377000D01*
X180541436Y-69336611D01*
X180350167Y-69257385D01*
X180350166Y-69257385D01*
X180350165Y-69257384D01*
X180178027Y-69142365D01*
X180031635Y-68995973D01*
X179916616Y-68823835D01*
X179916615Y-68823833D01*
X179837389Y-68632564D01*
X179797000Y-68429516D01*
X179797000Y-68222484D01*
X179837389Y-68019436D01*
X179916615Y-67828167D01*
X180031635Y-67656027D01*
X180178027Y-67509635D01*
X180350165Y-67394616D01*
X180350167Y-67394615D01*
X180541436Y-67315389D01*
X180744484Y-67275000D01*
X180951516Y-67275000D01*
X181154564Y-67315389D01*
X181154564Y-67315389D01*
G37*
G36*
X183694564Y-67315389D02*
G01*
X183885833Y-67394615D01*
X183885835Y-67394616D01*
X184057973Y-67509635D01*
X184204365Y-67656027D01*
X184319385Y-67828167D01*
X184398611Y-68019436D01*
X184439000Y-68222484D01*
X184439000Y-68429516D01*
X184398611Y-68632564D01*
X184319385Y-68823833D01*
X184319384Y-68823835D01*
X184204365Y-68995973D01*
X184057973Y-69142365D01*
X183885835Y-69257384D01*
X183885834Y-69257385D01*
X183885833Y-69257385D01*
X183694564Y-69336611D01*
X183491516Y-69377000D01*
X183284484Y-69377000D01*
X183081436Y-69336611D01*
X182890167Y-69257385D01*
X182890166Y-69257385D01*
X182890165Y-69257384D01*
X182718027Y-69142365D01*
X182571635Y-68995973D01*
X182456616Y-68823835D01*
X182456615Y-68823833D01*
X182377389Y-68632564D01*
X182337000Y-68429516D01*
X182337000Y-68222484D01*
X182377389Y-68019436D01*
X182456615Y-67828167D01*
X182571635Y-67656027D01*
X182718027Y-67509635D01*
X182890165Y-67394616D01*
X182890167Y-67394615D01*
X183081436Y-67315389D01*
X183284484Y-67275000D01*
X183491516Y-67275000D01*
X183694564Y-67315389D01*
X183694564Y-67315389D01*
G37*
G36*
X186234564Y-67315389D02*
G01*
X186425833Y-67394615D01*
X186425835Y-67394616D01*
X186597973Y-67509635D01*
X186744365Y-67656027D01*
X186859385Y-67828167D01*
X186938611Y-68019436D01*
X186979000Y-68222484D01*
X186979000Y-68429516D01*
X186938611Y-68632564D01*
X186859385Y-68823833D01*
X186859384Y-68823835D01*
X186744365Y-68995973D01*
X186597973Y-69142365D01*
X186425835Y-69257384D01*
X186425834Y-69257385D01*
X186425833Y-69257385D01*
X186234564Y-69336611D01*
X186031516Y-69377000D01*
X185824484Y-69377000D01*
X185621436Y-69336611D01*
X185430167Y-69257385D01*
X185430166Y-69257385D01*
X185430165Y-69257384D01*
X185258027Y-69142365D01*
X185111635Y-68995973D01*
X184996616Y-68823835D01*
X184996615Y-68823833D01*
X184917389Y-68632564D01*
X184877000Y-68429516D01*
X184877000Y-68222484D01*
X184917389Y-68019436D01*
X184996615Y-67828167D01*
X185111635Y-67656027D01*
X185258027Y-67509635D01*
X185430165Y-67394616D01*
X185430167Y-67394615D01*
X185621436Y-67315389D01*
X185824484Y-67275000D01*
X186031516Y-67275000D01*
X186234564Y-67315389D01*
X186234564Y-67315389D01*
G37*
G36*
X179359000Y-69377000D02*
G01*
X177257000Y-69377000D01*
X177257000Y-67275000D01*
X179359000Y-67275000D01*
X179359000Y-69377000D01*
X179359000Y-69377000D01*
G37*
G36*
X225257000Y-67630000D02*
G01*
X224455000Y-67630000D01*
X224455000Y-66228000D01*
X225257000Y-66228000D01*
X225257000Y-67630000D01*
X225257000Y-67630000D01*
G37*
G36*
X227157000Y-67630000D02*
G01*
X226355000Y-67630000D01*
X226355000Y-66228000D01*
X227157000Y-66228000D01*
X227157000Y-67630000D01*
X227157000Y-67630000D01*
G37*
G36*
X251130000Y-62027000D02*
G01*
X247218000Y-62027000D01*
X247218000Y-59893000D01*
X251130000Y-59893000D01*
X251130000Y-62027000D01*
X251130000Y-62027000D01*
G37*
G36*
X241986000Y-61773000D02*
G01*
X238074000Y-61773000D01*
X238074000Y-59639000D01*
X241986000Y-59639000D01*
X241986000Y-61773000D01*
X241986000Y-61773000D01*
G37*
G36*
X232588000Y-61519000D02*
G01*
X228676000Y-61519000D01*
X228676000Y-59385000D01*
X232588000Y-59385000D01*
X232588000Y-61519000D01*
X232588000Y-61519000D01*
G37*
G36*
X213981000Y-60881000D02*
G01*
X213279000Y-60881000D01*
X213279000Y-58879000D01*
X213981000Y-58879000D01*
X213981000Y-60881000D01*
X213981000Y-60881000D01*
G37*
G36*
X214981000Y-60881000D02*
G01*
X214279000Y-60881000D01*
X214279000Y-58879000D01*
X214981000Y-58879000D01*
X214981000Y-60881000D01*
X214981000Y-60881000D01*
G37*
G36*
X215981000Y-60881000D02*
G01*
X215279000Y-60881000D01*
X215279000Y-58879000D01*
X215981000Y-58879000D01*
X215981000Y-60881000D01*
X215981000Y-60881000D01*
G37*
G36*
X216981000Y-60881000D02*
G01*
X216279000Y-60881000D01*
X216279000Y-58879000D01*
X216981000Y-58879000D01*
X216981000Y-60881000D01*
X216981000Y-60881000D01*
G37*
G36*
X217981000Y-60881000D02*
G01*
X217279000Y-60881000D01*
X217279000Y-58879000D01*
X217981000Y-58879000D01*
X217981000Y-60881000D01*
X217981000Y-60881000D01*
G37*
G36*
X218981000Y-60881000D02*
G01*
X218279000Y-60881000D01*
X218279000Y-58879000D01*
X218981000Y-58879000D01*
X218981000Y-60881000D01*
X218981000Y-60881000D01*
G37*
G36*
X209981000Y-60881000D02*
G01*
X209279000Y-60881000D01*
X209279000Y-58879000D01*
X209981000Y-58879000D01*
X209981000Y-60881000D01*
X209981000Y-60881000D01*
G37*
G36*
X210981000Y-60881000D02*
G01*
X210279000Y-60881000D01*
X210279000Y-58879000D01*
X210981000Y-58879000D01*
X210981000Y-60881000D01*
X210981000Y-60881000D01*
G37*
G36*
X211981000Y-60881000D02*
G01*
X211279000Y-60881000D01*
X211279000Y-58879000D01*
X211981000Y-58879000D01*
X211981000Y-60881000D01*
X211981000Y-60881000D01*
G37*
G36*
X212981000Y-60881000D02*
G01*
X212279000Y-60881000D01*
X212279000Y-58879000D01*
X212981000Y-58879000D01*
X212981000Y-60881000D01*
X212981000Y-60881000D01*
G37*
G36*
X262801632Y-51984677D02*
G01*
X263107005Y-52111167D01*
X263538868Y-52290050D01*
X264202362Y-52733383D01*
X264766617Y-53297638D01*
X265209950Y-53961132D01*
X265388833Y-54392995D01*
X265515323Y-54698368D01*
X265671000Y-55481010D01*
X265671000Y-56278990D01*
X265515323Y-57061632D01*
X265388833Y-57367005D01*
X265209950Y-57798868D01*
X264766617Y-58462362D01*
X264202362Y-59026617D01*
X263538868Y-59469950D01*
X263130744Y-59639000D01*
X262801632Y-59775323D01*
X262018990Y-59931000D01*
X261221010Y-59931000D01*
X260438368Y-59775323D01*
X260109256Y-59639000D01*
X259701132Y-59469950D01*
X259037638Y-59026617D01*
X258473383Y-58462362D01*
X258030050Y-57798868D01*
X257851167Y-57367005D01*
X257724677Y-57061632D01*
X257569000Y-56278990D01*
X257569000Y-55481010D01*
X257724677Y-54698368D01*
X257851167Y-54392995D01*
X258030050Y-53961132D01*
X258473383Y-53297638D01*
X259037638Y-52733383D01*
X259701132Y-52290050D01*
X260132995Y-52111167D01*
X260438368Y-51984677D01*
X261221010Y-51829000D01*
X262018990Y-51829000D01*
X262801632Y-51984677D01*
X262801632Y-51984677D01*
G37*
G36*
X158661632Y-51984677D02*
G01*
X158967005Y-52111167D01*
X159398868Y-52290050D01*
X160062362Y-52733383D01*
X160626617Y-53297638D01*
X161069950Y-53961132D01*
X161248833Y-54392995D01*
X161375323Y-54698368D01*
X161531000Y-55481010D01*
X161531000Y-56278990D01*
X161375323Y-57061632D01*
X161248833Y-57367005D01*
X161069950Y-57798868D01*
X160626617Y-58462362D01*
X160062362Y-59026617D01*
X159398868Y-59469950D01*
X158990744Y-59639000D01*
X158661632Y-59775323D01*
X157878990Y-59931000D01*
X157081010Y-59931000D01*
X156298368Y-59775323D01*
X155969256Y-59639000D01*
X155561132Y-59469950D01*
X154897638Y-59026617D01*
X154333383Y-58462362D01*
X153890050Y-57798868D01*
X153711167Y-57367005D01*
X153584677Y-57061632D01*
X153429000Y-56278990D01*
X153429000Y-55481010D01*
X153584677Y-54698368D01*
X153711167Y-54392995D01*
X153890050Y-53961132D01*
X154333383Y-53297638D01*
X154897638Y-52733383D01*
X155561132Y-52290050D01*
X155992995Y-52111167D01*
X156298368Y-51984677D01*
X157081010Y-51829000D01*
X157878990Y-51829000D01*
X158661632Y-51984677D01*
X158661632Y-51984677D01*
G37*
G36*
X207581000Y-58981000D02*
G01*
X205379000Y-58981000D01*
X205379000Y-56079000D01*
X207581000Y-56079000D01*
X207581000Y-58981000D01*
X207581000Y-58981000D01*
G37*
G36*
X222881000Y-58981000D02*
G01*
X220679000Y-58981000D01*
X220679000Y-56079000D01*
X222881000Y-56079000D01*
X222881000Y-58981000D01*
X222881000Y-58981000D01*
G37*
G36*
X198821000Y-58501000D02*
G01*
X197419000Y-58501000D01*
X197419000Y-57699000D01*
X198821000Y-57699000D01*
X198821000Y-58501000D01*
X198821000Y-58501000D01*
G37*
G36*
X175961000Y-58501000D02*
G01*
X174559000Y-58501000D01*
X174559000Y-57699000D01*
X175961000Y-57699000D01*
X175961000Y-58501000D01*
X175961000Y-58501000D01*
G37*
G36*
X183581000Y-58501000D02*
G01*
X182179000Y-58501000D01*
X182179000Y-57699000D01*
X183581000Y-57699000D01*
X183581000Y-58501000D01*
X183581000Y-58501000D01*
G37*
G36*
X187391000Y-58501000D02*
G01*
X185989000Y-58501000D01*
X185989000Y-57699000D01*
X187391000Y-57699000D01*
X187391000Y-58501000D01*
X187391000Y-58501000D01*
G37*
G36*
X191201000Y-58501000D02*
G01*
X189799000Y-58501000D01*
X189799000Y-57699000D01*
X191201000Y-57699000D01*
X191201000Y-58501000D01*
X191201000Y-58501000D01*
G37*
G36*
X179771000Y-58501000D02*
G01*
X178369000Y-58501000D01*
X178369000Y-57699000D01*
X179771000Y-57699000D01*
X179771000Y-58501000D01*
X179771000Y-58501000D01*
G37*
G36*
X172151000Y-58501000D02*
G01*
X170749000Y-58501000D01*
X170749000Y-57699000D01*
X172151000Y-57699000D01*
X172151000Y-58501000D01*
X172151000Y-58501000D01*
G37*
G36*
X195011000Y-58501000D02*
G01*
X193609000Y-58501000D01*
X193609000Y-57699000D01*
X195011000Y-57699000D01*
X195011000Y-58501000D01*
X195011000Y-58501000D01*
G37*
G36*
X179771000Y-56601000D02*
G01*
X178369000Y-56601000D01*
X178369000Y-55799000D01*
X179771000Y-55799000D01*
X179771000Y-56601000D01*
X179771000Y-56601000D01*
G37*
G36*
X198821000Y-56601000D02*
G01*
X197419000Y-56601000D01*
X197419000Y-55799000D01*
X198821000Y-55799000D01*
X198821000Y-56601000D01*
X198821000Y-56601000D01*
G37*
G36*
X195011000Y-56601000D02*
G01*
X193609000Y-56601000D01*
X193609000Y-55799000D01*
X195011000Y-55799000D01*
X195011000Y-56601000D01*
X195011000Y-56601000D01*
G37*
G36*
X191201000Y-56601000D02*
G01*
X189799000Y-56601000D01*
X189799000Y-55799000D01*
X191201000Y-55799000D01*
X191201000Y-56601000D01*
X191201000Y-56601000D01*
G37*
G36*
X187391000Y-56601000D02*
G01*
X185989000Y-56601000D01*
X185989000Y-55799000D01*
X187391000Y-55799000D01*
X187391000Y-56601000D01*
X187391000Y-56601000D01*
G37*
G36*
X183581000Y-56601000D02*
G01*
X182179000Y-56601000D01*
X182179000Y-55799000D01*
X183581000Y-55799000D01*
X183581000Y-56601000D01*
X183581000Y-56601000D01*
G37*
G36*
X175961000Y-56601000D02*
G01*
X174559000Y-56601000D01*
X174559000Y-55799000D01*
X175961000Y-55799000D01*
X175961000Y-56601000D01*
X175961000Y-56601000D01*
G37*
G36*
X172151000Y-56601000D02*
G01*
X170749000Y-56601000D01*
X170749000Y-55799000D01*
X172151000Y-55799000D01*
X172151000Y-56601000D01*
X172151000Y-56601000D01*
G37*
M02*
