M48
; DRILL file {KiCad 5.1.2-5.1.2} date Tue 30 Apr 2019 10:28:22 AM EDT
; FORMAT={-:-/ absolute / inch / decimal}
; #@! TF.CreationDate,2019-04-30T10:28:22-04:00
; #@! TF.GenerationSoftware,Kicad,Pcbnew,5.1.2-5.1.2
; #@! TF.FileFunction,Plated,1,2,PTH
FMAT,2
INCH
T1C0.0157
T2C0.0315
T3C0.0374
T4C0.0470
T5C0.1200
T6C0.1575
%
G90
G05
T1
X6.278Y-2.886
X6.893Y-4.004
X7.29Y-3.862
X7.357Y-3.794
X7.934Y-3.454
X8.154Y-4.115
X8.568Y-2.284
X8.592Y-4.06
X8.599Y-3.125
X8.6136Y-3.5494
X8.783Y-2.8
X8.85Y-2.8
X8.919Y-2.8
X9.45Y-2.497
X9.479Y-3.835
T2
X6.274Y-3.2153
X6.274Y-3.294
T3
X7.02Y-2.69
X7.12Y-2.69
X7.22Y-2.69
X7.32Y-2.69
T4
X9.4016Y-2.9047
X9.4016Y-3.4953
X9.5Y-3.4953
X9.5984Y-2.9047
X9.5984Y-3.4953
T5
X9.2638Y-3.2
X9.7362Y-3.2
T6
X6.2Y-4.2
X10.3Y-4.2
X10.3Y-2.2
X6.2Y-2.2
T0
M30
