G04 #@! TF.GenerationSoftware,KiCad,Pcbnew,5.1.2-5.1.2*
G04 #@! TF.CreationDate,2019-04-30T10:28:01-04:00*
G04 #@! TF.ProjectId,Controlpanel,436f6e74-726f-46c7-9061-6e656c2e6b69,rev?*
G04 #@! TF.SameCoordinates,Original*
G04 #@! TF.FileFunction,Soldermask,Bot*
G04 #@! TF.FilePolarity,Negative*
%FSLAX46Y46*%
G04 Gerber Fmt 4.6, Leading zero omitted, Abs format (unit mm)*
G04 Created by KiCad (PCBNEW 5.1.2-5.1.2) date 2019-04-30 10:28:01*
%MOMM*%
%LPD*%
G04 APERTURE LIST*
%ADD10C,0.100000*%
G04 APERTURE END LIST*
D10*
G36*
X262801632Y-102784677D02*
G01*
X262989858Y-102862643D01*
X263538868Y-103090050D01*
X264202362Y-103533383D01*
X264766617Y-104097638D01*
X265209950Y-104761132D01*
X265351462Y-105102774D01*
X265515323Y-105498368D01*
X265671000Y-106281010D01*
X265671000Y-107078990D01*
X265515323Y-107861632D01*
X265450247Y-108018739D01*
X265209950Y-108598868D01*
X264766617Y-109262362D01*
X264202362Y-109826617D01*
X263538868Y-110269950D01*
X263107005Y-110448833D01*
X262801632Y-110575323D01*
X262018990Y-110731000D01*
X261221010Y-110731000D01*
X260438368Y-110575323D01*
X260132995Y-110448833D01*
X259701132Y-110269950D01*
X259037638Y-109826617D01*
X258473383Y-109262362D01*
X258030050Y-108598868D01*
X257789753Y-108018739D01*
X257724677Y-107861632D01*
X257569000Y-107078990D01*
X257569000Y-106281010D01*
X257724677Y-105498368D01*
X257888538Y-105102774D01*
X258030050Y-104761132D01*
X258473383Y-104097638D01*
X259037638Y-103533383D01*
X259701132Y-103090050D01*
X260250142Y-102862643D01*
X260438368Y-102784677D01*
X261221010Y-102629000D01*
X262018990Y-102629000D01*
X262801632Y-102784677D01*
X262801632Y-102784677D01*
G37*
G36*
X158661632Y-102784677D02*
G01*
X158849858Y-102862643D01*
X159398868Y-103090050D01*
X160062362Y-103533383D01*
X160626617Y-104097638D01*
X161069950Y-104761132D01*
X161211462Y-105102774D01*
X161375323Y-105498368D01*
X161531000Y-106281010D01*
X161531000Y-107078990D01*
X161375323Y-107861632D01*
X161310247Y-108018739D01*
X161069950Y-108598868D01*
X160626617Y-109262362D01*
X160062362Y-109826617D01*
X159398868Y-110269950D01*
X158967005Y-110448833D01*
X158661632Y-110575323D01*
X157878990Y-110731000D01*
X157081010Y-110731000D01*
X156298368Y-110575323D01*
X155992995Y-110448833D01*
X155561132Y-110269950D01*
X154897638Y-109826617D01*
X154333383Y-109262362D01*
X153890050Y-108598868D01*
X153649753Y-108018739D01*
X153584677Y-107861632D01*
X153429000Y-107078990D01*
X153429000Y-106281010D01*
X153584677Y-105498368D01*
X153748538Y-105102774D01*
X153890050Y-104761132D01*
X154333383Y-104097638D01*
X154897638Y-103533383D01*
X155561132Y-103090050D01*
X156110142Y-102862643D01*
X156298368Y-102784677D01*
X157081010Y-102629000D01*
X157878990Y-102629000D01*
X158661632Y-102784677D01*
X158661632Y-102784677D01*
G37*
G36*
X180802178Y-107058597D02*
G01*
X180854950Y-107069094D01*
X180954370Y-107110275D01*
X181043846Y-107170061D01*
X181119939Y-107246154D01*
X181179725Y-107335630D01*
X181220906Y-107435050D01*
X181241900Y-107540594D01*
X181241900Y-107648206D01*
X181220906Y-107753750D01*
X181179725Y-107853170D01*
X181119939Y-107942646D01*
X181043846Y-108018739D01*
X180954370Y-108078525D01*
X180854950Y-108119706D01*
X180802178Y-108130203D01*
X180749407Y-108140700D01*
X180641793Y-108140700D01*
X180589022Y-108130203D01*
X180536250Y-108119706D01*
X180436830Y-108078525D01*
X180347354Y-108018739D01*
X180271261Y-107942646D01*
X180211475Y-107853170D01*
X180170294Y-107753750D01*
X180149300Y-107648206D01*
X180149300Y-107540594D01*
X180170294Y-107435050D01*
X180211475Y-107335630D01*
X180271261Y-107246154D01*
X180347354Y-107170061D01*
X180436830Y-107110275D01*
X180536250Y-107069094D01*
X180589022Y-107058597D01*
X180641793Y-107048100D01*
X180749407Y-107048100D01*
X180802178Y-107058597D01*
X180802178Y-107058597D01*
G37*
G36*
X182834178Y-107058597D02*
G01*
X182886950Y-107069094D01*
X182986370Y-107110275D01*
X183075846Y-107170061D01*
X183151939Y-107246154D01*
X183211725Y-107335630D01*
X183252906Y-107435050D01*
X183273900Y-107540594D01*
X183273900Y-107648206D01*
X183252906Y-107753750D01*
X183211725Y-107853170D01*
X183151939Y-107942646D01*
X183075846Y-108018739D01*
X182986370Y-108078525D01*
X182886950Y-108119706D01*
X182834178Y-108130203D01*
X182781407Y-108140700D01*
X182673793Y-108140700D01*
X182621022Y-108130203D01*
X182568250Y-108119706D01*
X182468830Y-108078525D01*
X182379354Y-108018739D01*
X182303261Y-107942646D01*
X182243475Y-107853170D01*
X182202294Y-107753750D01*
X182181300Y-107648206D01*
X182181300Y-107540594D01*
X182202294Y-107435050D01*
X182243475Y-107335630D01*
X182303261Y-107246154D01*
X182379354Y-107170061D01*
X182468830Y-107110275D01*
X182568250Y-107069094D01*
X182621022Y-107058597D01*
X182673793Y-107048100D01*
X182781407Y-107048100D01*
X182834178Y-107058597D01*
X182834178Y-107058597D01*
G37*
G36*
X184493210Y-104474747D02*
G01*
X184612842Y-104498543D01*
X184838226Y-104591900D01*
X185041066Y-104727433D01*
X185213567Y-104899934D01*
X185349100Y-105102774D01*
X185442457Y-105328158D01*
X185490050Y-105567423D01*
X185490050Y-105811377D01*
X185442457Y-106050642D01*
X185349100Y-106276026D01*
X185213567Y-106478866D01*
X185041066Y-106651367D01*
X184838226Y-106786900D01*
X184612842Y-106880257D01*
X184493210Y-106904053D01*
X184373578Y-106927850D01*
X184129622Y-106927850D01*
X184009990Y-106904053D01*
X183890358Y-106880257D01*
X183664974Y-106786900D01*
X183462134Y-106651367D01*
X183289633Y-106478866D01*
X183154100Y-106276026D01*
X183060743Y-106050642D01*
X183013150Y-105811377D01*
X183013150Y-105567423D01*
X183060743Y-105328158D01*
X183154100Y-105102774D01*
X183289633Y-104899934D01*
X183462134Y-104727433D01*
X183664974Y-104591900D01*
X183890358Y-104498543D01*
X184009990Y-104474747D01*
X184129622Y-104450950D01*
X184373578Y-104450950D01*
X184493210Y-104474747D01*
X184493210Y-104474747D01*
G37*
G36*
X179413210Y-104474747D02*
G01*
X179532842Y-104498543D01*
X179758226Y-104591900D01*
X179961066Y-104727433D01*
X180133567Y-104899934D01*
X180269100Y-105102774D01*
X180362457Y-105328158D01*
X180410050Y-105567423D01*
X180410050Y-105811377D01*
X180362457Y-106050642D01*
X180269100Y-106276026D01*
X180133567Y-106478866D01*
X179961066Y-106651367D01*
X179758226Y-106786900D01*
X179532842Y-106880257D01*
X179413210Y-106904053D01*
X179293578Y-106927850D01*
X179049622Y-106927850D01*
X178929990Y-106904053D01*
X178810358Y-106880257D01*
X178584974Y-106786900D01*
X178382134Y-106651367D01*
X178209633Y-106478866D01*
X178074100Y-106276026D01*
X177980743Y-106050642D01*
X177933150Y-105811377D01*
X177933150Y-105567423D01*
X177980743Y-105328158D01*
X178074100Y-105102774D01*
X178209633Y-104899934D01*
X178382134Y-104727433D01*
X178584974Y-104591900D01*
X178810358Y-104498543D01*
X178929990Y-104474747D01*
X179049622Y-104450950D01*
X179293578Y-104450950D01*
X179413210Y-104474747D01*
X179413210Y-104474747D01*
G37*
G36*
X184493209Y-101299746D02*
G01*
X184612842Y-101323543D01*
X184838226Y-101416900D01*
X185041066Y-101552433D01*
X185213567Y-101724934D01*
X185349100Y-101927774D01*
X185442457Y-102153158D01*
X185490050Y-102392423D01*
X185490050Y-102636377D01*
X185442457Y-102875642D01*
X185391558Y-102998524D01*
X185353647Y-103090050D01*
X185349100Y-103101026D01*
X185213567Y-103303866D01*
X185041066Y-103476367D01*
X184838226Y-103611900D01*
X184612842Y-103705257D01*
X184493210Y-103729053D01*
X184373578Y-103752850D01*
X184129622Y-103752850D01*
X184009990Y-103729053D01*
X183890358Y-103705257D01*
X183664974Y-103611900D01*
X183462134Y-103476367D01*
X183289633Y-103303866D01*
X183154100Y-103101026D01*
X183149554Y-103090050D01*
X183111642Y-102998524D01*
X183060743Y-102875642D01*
X183013150Y-102636377D01*
X183013150Y-102392423D01*
X183060743Y-102153158D01*
X183154100Y-101927774D01*
X183289633Y-101724934D01*
X183462134Y-101552433D01*
X183664974Y-101416900D01*
X183890358Y-101323543D01*
X184009990Y-101299747D01*
X184129622Y-101275950D01*
X184373578Y-101275950D01*
X184493209Y-101299746D01*
X184493209Y-101299746D01*
G37*
G36*
X179413209Y-101299746D02*
G01*
X179532842Y-101323543D01*
X179758226Y-101416900D01*
X179961066Y-101552433D01*
X180133567Y-101724934D01*
X180269100Y-101927774D01*
X180362457Y-102153158D01*
X180410050Y-102392423D01*
X180410050Y-102636377D01*
X180362457Y-102875642D01*
X180311558Y-102998524D01*
X180273647Y-103090050D01*
X180269100Y-103101026D01*
X180133567Y-103303866D01*
X179961066Y-103476367D01*
X179758226Y-103611900D01*
X179532842Y-103705257D01*
X179413210Y-103729053D01*
X179293578Y-103752850D01*
X179049622Y-103752850D01*
X178929990Y-103729053D01*
X178810358Y-103705257D01*
X178584974Y-103611900D01*
X178382134Y-103476367D01*
X178209633Y-103303866D01*
X178074100Y-103101026D01*
X178069554Y-103090050D01*
X178031642Y-102998524D01*
X177980743Y-102875642D01*
X177933150Y-102636377D01*
X177933150Y-102392423D01*
X177980743Y-102153158D01*
X178074100Y-101927774D01*
X178209633Y-101724934D01*
X178382134Y-101552433D01*
X178584974Y-101416900D01*
X178810358Y-101323543D01*
X178929990Y-101299747D01*
X179049622Y-101275950D01*
X179293578Y-101275950D01*
X179413209Y-101299746D01*
X179413209Y-101299746D01*
G37*
G36*
X181818178Y-101978597D02*
G01*
X181870950Y-101989094D01*
X181970370Y-102030275D01*
X182059846Y-102090061D01*
X182135939Y-102166154D01*
X182195725Y-102255630D01*
X182236906Y-102355050D01*
X182257900Y-102460594D01*
X182257900Y-102568206D01*
X182236906Y-102673750D01*
X182195725Y-102773170D01*
X182135939Y-102862646D01*
X182059846Y-102938739D01*
X181970370Y-102998525D01*
X181870950Y-103039706D01*
X181818178Y-103050203D01*
X181765407Y-103060700D01*
X181657793Y-103060700D01*
X181605022Y-103050203D01*
X181552250Y-103039706D01*
X181452830Y-102998525D01*
X181363354Y-102938739D01*
X181287261Y-102862646D01*
X181227475Y-102773170D01*
X181186294Y-102673750D01*
X181165300Y-102568206D01*
X181165300Y-102460594D01*
X181186294Y-102355050D01*
X181227475Y-102255630D01*
X181287261Y-102166154D01*
X181363354Y-102090061D01*
X181452830Y-102030275D01*
X181552250Y-101989094D01*
X181605022Y-101978597D01*
X181657793Y-101968100D01*
X181765407Y-101968100D01*
X181818178Y-101978597D01*
X181818178Y-101978597D01*
G37*
G36*
X239009167Y-87220439D02*
G01*
X239210298Y-87281451D01*
X239395661Y-87380530D01*
X239558133Y-87513867D01*
X239618236Y-87587102D01*
X239691471Y-87676339D01*
X239744682Y-87775890D01*
X239790549Y-87861701D01*
X239851561Y-88062832D01*
X239867000Y-88219589D01*
X239867000Y-89340411D01*
X239851561Y-89497168D01*
X239790549Y-89698299D01*
X239744682Y-89784110D01*
X239691471Y-89883661D01*
X239558133Y-90046133D01*
X239395661Y-90179471D01*
X239296110Y-90232682D01*
X239210299Y-90278549D01*
X239009168Y-90339561D01*
X238800000Y-90360162D01*
X238590833Y-90339561D01*
X238389702Y-90278549D01*
X238303891Y-90232682D01*
X238204340Y-90179471D01*
X238041868Y-90046133D01*
X237908530Y-89883660D01*
X237855024Y-89783558D01*
X237809452Y-89698299D01*
X237748439Y-89497168D01*
X237733000Y-89340411D01*
X237733000Y-88219590D01*
X237748439Y-88062833D01*
X237809451Y-87861702D01*
X237908530Y-87676339D01*
X238041867Y-87513867D01*
X238115102Y-87453764D01*
X238204339Y-87380529D01*
X238303890Y-87327318D01*
X238389701Y-87281451D01*
X238590832Y-87220439D01*
X238800000Y-87199838D01*
X239009167Y-87220439D01*
X239009167Y-87220439D01*
G37*
G36*
X244009167Y-87220439D02*
G01*
X244210298Y-87281451D01*
X244395661Y-87380530D01*
X244558133Y-87513867D01*
X244618236Y-87587102D01*
X244691471Y-87676339D01*
X244744682Y-87775890D01*
X244790549Y-87861701D01*
X244851561Y-88062832D01*
X244867000Y-88219589D01*
X244867000Y-89340411D01*
X244851561Y-89497168D01*
X244790549Y-89698299D01*
X244744682Y-89784110D01*
X244691471Y-89883661D01*
X244558133Y-90046133D01*
X244395661Y-90179471D01*
X244296110Y-90232682D01*
X244210299Y-90278549D01*
X244009168Y-90339561D01*
X243800000Y-90360162D01*
X243590833Y-90339561D01*
X243389702Y-90278549D01*
X243303891Y-90232682D01*
X243204340Y-90179471D01*
X243041868Y-90046133D01*
X242908530Y-89883660D01*
X242855024Y-89783558D01*
X242809452Y-89698299D01*
X242748439Y-89497168D01*
X242733000Y-89340411D01*
X242733000Y-88219590D01*
X242748439Y-88062833D01*
X242809451Y-87861702D01*
X242908530Y-87676339D01*
X243041867Y-87513867D01*
X243115102Y-87453764D01*
X243204339Y-87380529D01*
X243303890Y-87327318D01*
X243389701Y-87281451D01*
X243590832Y-87220439D01*
X243800000Y-87199838D01*
X244009167Y-87220439D01*
X244009167Y-87220439D01*
G37*
G36*
X241509167Y-87220439D02*
G01*
X241710298Y-87281451D01*
X241895661Y-87380530D01*
X242058133Y-87513867D01*
X242118236Y-87587102D01*
X242191471Y-87676339D01*
X242244682Y-87775890D01*
X242290549Y-87861701D01*
X242351561Y-88062832D01*
X242367000Y-88219589D01*
X242367000Y-89340411D01*
X242351561Y-89497168D01*
X242290549Y-89698299D01*
X242244682Y-89784110D01*
X242191471Y-89883661D01*
X242058133Y-90046133D01*
X241895661Y-90179471D01*
X241796110Y-90232682D01*
X241710299Y-90278549D01*
X241509168Y-90339561D01*
X241300000Y-90360162D01*
X241090833Y-90339561D01*
X240889702Y-90278549D01*
X240803891Y-90232682D01*
X240704340Y-90179471D01*
X240541868Y-90046133D01*
X240408530Y-89883660D01*
X240355024Y-89783558D01*
X240309452Y-89698299D01*
X240248439Y-89497168D01*
X240233000Y-89340411D01*
X240233000Y-88219590D01*
X240248439Y-88062833D01*
X240309451Y-87861702D01*
X240408530Y-87676339D01*
X240541867Y-87513867D01*
X240615102Y-87453764D01*
X240704339Y-87380529D01*
X240803890Y-87327318D01*
X240889701Y-87281451D01*
X241090832Y-87220439D01*
X241300000Y-87199838D01*
X241509167Y-87220439D01*
X241509167Y-87220439D01*
G37*
G36*
X247807924Y-76186490D02*
G01*
X248296329Y-76334646D01*
X248296332Y-76334647D01*
X248746445Y-76575238D01*
X248746447Y-76575239D01*
X248746446Y-76575239D01*
X249140978Y-76899022D01*
X249415529Y-77233563D01*
X249464762Y-77293554D01*
X249705353Y-77743667D01*
X249705353Y-77743668D01*
X249705354Y-77743670D01*
X249853510Y-78232075D01*
X249891000Y-78612719D01*
X249891000Y-83947281D01*
X249853510Y-84327925D01*
X249705354Y-84816330D01*
X249705353Y-84816333D01*
X249464762Y-85266446D01*
X249140978Y-85660978D01*
X248746446Y-85984762D01*
X248296333Y-86225353D01*
X248296330Y-86225354D01*
X247807925Y-86373510D01*
X247300000Y-86423536D01*
X246792076Y-86373510D01*
X246303671Y-86225354D01*
X246303668Y-86225353D01*
X245853555Y-85984762D01*
X245459023Y-85660978D01*
X245135239Y-85266446D01*
X244894648Y-84816333D01*
X244894647Y-84816330D01*
X244746491Y-84327925D01*
X244709001Y-83947281D01*
X244709000Y-78612720D01*
X244746490Y-78232076D01*
X244894646Y-77743671D01*
X244894647Y-77743668D01*
X245135238Y-77293555D01*
X245193300Y-77222806D01*
X245459022Y-76899022D01*
X245853553Y-76575239D01*
X245853552Y-76575239D01*
X245853554Y-76575238D01*
X246303667Y-76334647D01*
X246303670Y-76334646D01*
X246792075Y-76186490D01*
X247300000Y-76136464D01*
X247807924Y-76186490D01*
X247807924Y-76186490D01*
G37*
G36*
X235807924Y-76186490D02*
G01*
X236296329Y-76334646D01*
X236296332Y-76334647D01*
X236746445Y-76575238D01*
X236746447Y-76575239D01*
X236746446Y-76575239D01*
X237140978Y-76899022D01*
X237415529Y-77233563D01*
X237464762Y-77293554D01*
X237705353Y-77743667D01*
X237705353Y-77743668D01*
X237705354Y-77743670D01*
X237853510Y-78232075D01*
X237891000Y-78612719D01*
X237891000Y-83947281D01*
X237853510Y-84327925D01*
X237705354Y-84816330D01*
X237705353Y-84816333D01*
X237464762Y-85266446D01*
X237140978Y-85660978D01*
X236746446Y-85984762D01*
X236296333Y-86225353D01*
X236296330Y-86225354D01*
X235807925Y-86373510D01*
X235300000Y-86423536D01*
X234792076Y-86373510D01*
X234303671Y-86225354D01*
X234303668Y-86225353D01*
X233853555Y-85984762D01*
X233459023Y-85660978D01*
X233135239Y-85266446D01*
X232894648Y-84816333D01*
X232894647Y-84816330D01*
X232746491Y-84327925D01*
X232709001Y-83947281D01*
X232709000Y-78612720D01*
X232746490Y-78232076D01*
X232894646Y-77743671D01*
X232894647Y-77743668D01*
X233135238Y-77293555D01*
X233193300Y-77222806D01*
X233459022Y-76899022D01*
X233853553Y-76575239D01*
X233853552Y-76575239D01*
X233853554Y-76575238D01*
X234303667Y-76334647D01*
X234303670Y-76334646D01*
X234792075Y-76186490D01*
X235300000Y-76136464D01*
X235807924Y-76186490D01*
X235807924Y-76186490D01*
G37*
G36*
X160085600Y-84393600D02*
G01*
X158633600Y-84393600D01*
X158633600Y-82941600D01*
X160085600Y-82941600D01*
X160085600Y-84393600D01*
X160085600Y-84393600D01*
G37*
G36*
X159430813Y-80945102D02*
G01*
X159501921Y-80952105D01*
X159638772Y-80993619D01*
X159638775Y-80993620D01*
X159764894Y-81061032D01*
X159875443Y-81151757D01*
X159966168Y-81262306D01*
X160033580Y-81388425D01*
X160033581Y-81388428D01*
X160075095Y-81525279D01*
X160089112Y-81667600D01*
X160075095Y-81809921D01*
X160033581Y-81946772D01*
X160033580Y-81946775D01*
X159966168Y-82072894D01*
X159875443Y-82183443D01*
X159764894Y-82274168D01*
X159638775Y-82341580D01*
X159638772Y-82341581D01*
X159501921Y-82383095D01*
X159430813Y-82390098D01*
X159395260Y-82393600D01*
X159323940Y-82393600D01*
X159288387Y-82390098D01*
X159217279Y-82383095D01*
X159080428Y-82341581D01*
X159080425Y-82341580D01*
X158954306Y-82274168D01*
X158843757Y-82183443D01*
X158753032Y-82072894D01*
X158685620Y-81946775D01*
X158685619Y-81946772D01*
X158644105Y-81809921D01*
X158630088Y-81667600D01*
X158644105Y-81525279D01*
X158685619Y-81388428D01*
X158685620Y-81388425D01*
X158753032Y-81262306D01*
X158843757Y-81151757D01*
X158954306Y-81061032D01*
X159080425Y-80993620D01*
X159080428Y-80993619D01*
X159217279Y-80952105D01*
X159288387Y-80945102D01*
X159323940Y-80941600D01*
X159395260Y-80941600D01*
X159430813Y-80945102D01*
X159430813Y-80945102D01*
G37*
G36*
X244009167Y-72220439D02*
G01*
X244210298Y-72281451D01*
X244395661Y-72380530D01*
X244558133Y-72513867D01*
X244618236Y-72587102D01*
X244691471Y-72676339D01*
X244744682Y-72775890D01*
X244790549Y-72861701D01*
X244851561Y-73062832D01*
X244867000Y-73219589D01*
X244867000Y-74340411D01*
X244851561Y-74497168D01*
X244790549Y-74698299D01*
X244744682Y-74784110D01*
X244691471Y-74883661D01*
X244558133Y-75046133D01*
X244395661Y-75179471D01*
X244296110Y-75232682D01*
X244210299Y-75278549D01*
X244009168Y-75339561D01*
X243800000Y-75360162D01*
X243590833Y-75339561D01*
X243389702Y-75278549D01*
X243303891Y-75232682D01*
X243204340Y-75179471D01*
X243041868Y-75046133D01*
X242908530Y-74883660D01*
X242855024Y-74783558D01*
X242809452Y-74698299D01*
X242748439Y-74497168D01*
X242733000Y-74340411D01*
X242733000Y-73219590D01*
X242748439Y-73062833D01*
X242809451Y-72861702D01*
X242908530Y-72676339D01*
X243041867Y-72513867D01*
X243115102Y-72453764D01*
X243204339Y-72380529D01*
X243303890Y-72327318D01*
X243389701Y-72281451D01*
X243590832Y-72220439D01*
X243800000Y-72199838D01*
X244009167Y-72220439D01*
X244009167Y-72220439D01*
G37*
G36*
X239009167Y-72220439D02*
G01*
X239210298Y-72281451D01*
X239395661Y-72380530D01*
X239558133Y-72513867D01*
X239618236Y-72587102D01*
X239691471Y-72676339D01*
X239744682Y-72775890D01*
X239790549Y-72861701D01*
X239851561Y-73062832D01*
X239867000Y-73219589D01*
X239867000Y-74340411D01*
X239851561Y-74497168D01*
X239790549Y-74698299D01*
X239744682Y-74784110D01*
X239691471Y-74883661D01*
X239558133Y-75046133D01*
X239395661Y-75179471D01*
X239296110Y-75232682D01*
X239210299Y-75278549D01*
X239009168Y-75339561D01*
X238800000Y-75360162D01*
X238590833Y-75339561D01*
X238389702Y-75278549D01*
X238303891Y-75232682D01*
X238204340Y-75179471D01*
X238041868Y-75046133D01*
X237908530Y-74883660D01*
X237855024Y-74783558D01*
X237809452Y-74698299D01*
X237748439Y-74497168D01*
X237733000Y-74340411D01*
X237733000Y-73219590D01*
X237748439Y-73062833D01*
X237809451Y-72861702D01*
X237908530Y-72676339D01*
X238041867Y-72513867D01*
X238115102Y-72453764D01*
X238204339Y-72380529D01*
X238303890Y-72327318D01*
X238389701Y-72281451D01*
X238590832Y-72220439D01*
X238800000Y-72199838D01*
X239009167Y-72220439D01*
X239009167Y-72220439D01*
G37*
G36*
X186234564Y-67315389D02*
G01*
X186425833Y-67394615D01*
X186425835Y-67394616D01*
X186597973Y-67509635D01*
X186744365Y-67656027D01*
X186859385Y-67828167D01*
X186938611Y-68019436D01*
X186979000Y-68222484D01*
X186979000Y-68429516D01*
X186938611Y-68632564D01*
X186859385Y-68823833D01*
X186859384Y-68823835D01*
X186744365Y-68995973D01*
X186597973Y-69142365D01*
X186425835Y-69257384D01*
X186425834Y-69257385D01*
X186425833Y-69257385D01*
X186234564Y-69336611D01*
X186031516Y-69377000D01*
X185824484Y-69377000D01*
X185621436Y-69336611D01*
X185430167Y-69257385D01*
X185430166Y-69257385D01*
X185430165Y-69257384D01*
X185258027Y-69142365D01*
X185111635Y-68995973D01*
X184996616Y-68823835D01*
X184996615Y-68823833D01*
X184917389Y-68632564D01*
X184877000Y-68429516D01*
X184877000Y-68222484D01*
X184917389Y-68019436D01*
X184996615Y-67828167D01*
X185111635Y-67656027D01*
X185258027Y-67509635D01*
X185430165Y-67394616D01*
X185430167Y-67394615D01*
X185621436Y-67315389D01*
X185824484Y-67275000D01*
X186031516Y-67275000D01*
X186234564Y-67315389D01*
X186234564Y-67315389D01*
G37*
G36*
X183694564Y-67315389D02*
G01*
X183885833Y-67394615D01*
X183885835Y-67394616D01*
X184057973Y-67509635D01*
X184204365Y-67656027D01*
X184319385Y-67828167D01*
X184398611Y-68019436D01*
X184439000Y-68222484D01*
X184439000Y-68429516D01*
X184398611Y-68632564D01*
X184319385Y-68823833D01*
X184319384Y-68823835D01*
X184204365Y-68995973D01*
X184057973Y-69142365D01*
X183885835Y-69257384D01*
X183885834Y-69257385D01*
X183885833Y-69257385D01*
X183694564Y-69336611D01*
X183491516Y-69377000D01*
X183284484Y-69377000D01*
X183081436Y-69336611D01*
X182890167Y-69257385D01*
X182890166Y-69257385D01*
X182890165Y-69257384D01*
X182718027Y-69142365D01*
X182571635Y-68995973D01*
X182456616Y-68823835D01*
X182456615Y-68823833D01*
X182377389Y-68632564D01*
X182337000Y-68429516D01*
X182337000Y-68222484D01*
X182377389Y-68019436D01*
X182456615Y-67828167D01*
X182571635Y-67656027D01*
X182718027Y-67509635D01*
X182890165Y-67394616D01*
X182890167Y-67394615D01*
X183081436Y-67315389D01*
X183284484Y-67275000D01*
X183491516Y-67275000D01*
X183694564Y-67315389D01*
X183694564Y-67315389D01*
G37*
G36*
X181154564Y-67315389D02*
G01*
X181345833Y-67394615D01*
X181345835Y-67394616D01*
X181517973Y-67509635D01*
X181664365Y-67656027D01*
X181779385Y-67828167D01*
X181858611Y-68019436D01*
X181899000Y-68222484D01*
X181899000Y-68429516D01*
X181858611Y-68632564D01*
X181779385Y-68823833D01*
X181779384Y-68823835D01*
X181664365Y-68995973D01*
X181517973Y-69142365D01*
X181345835Y-69257384D01*
X181345834Y-69257385D01*
X181345833Y-69257385D01*
X181154564Y-69336611D01*
X180951516Y-69377000D01*
X180744484Y-69377000D01*
X180541436Y-69336611D01*
X180350167Y-69257385D01*
X180350166Y-69257385D01*
X180350165Y-69257384D01*
X180178027Y-69142365D01*
X180031635Y-68995973D01*
X179916616Y-68823835D01*
X179916615Y-68823833D01*
X179837389Y-68632564D01*
X179797000Y-68429516D01*
X179797000Y-68222484D01*
X179837389Y-68019436D01*
X179916615Y-67828167D01*
X180031635Y-67656027D01*
X180178027Y-67509635D01*
X180350165Y-67394616D01*
X180350167Y-67394615D01*
X180541436Y-67315389D01*
X180744484Y-67275000D01*
X180951516Y-67275000D01*
X181154564Y-67315389D01*
X181154564Y-67315389D01*
G37*
G36*
X179359000Y-69377000D02*
G01*
X177257000Y-69377000D01*
X177257000Y-67275000D01*
X179359000Y-67275000D01*
X179359000Y-69377000D01*
X179359000Y-69377000D01*
G37*
G36*
X262801632Y-51984677D02*
G01*
X263107005Y-52111167D01*
X263538868Y-52290050D01*
X264202362Y-52733383D01*
X264766617Y-53297638D01*
X265209950Y-53961132D01*
X265388833Y-54392995D01*
X265515323Y-54698368D01*
X265671000Y-55481010D01*
X265671000Y-56278990D01*
X265515323Y-57061632D01*
X265388833Y-57367005D01*
X265209950Y-57798868D01*
X264766617Y-58462362D01*
X264202362Y-59026617D01*
X263538868Y-59469950D01*
X263107005Y-59648833D01*
X262801632Y-59775323D01*
X262018990Y-59931000D01*
X261221010Y-59931000D01*
X260438368Y-59775323D01*
X260132995Y-59648833D01*
X259701132Y-59469950D01*
X259037638Y-59026617D01*
X258473383Y-58462362D01*
X258030050Y-57798868D01*
X257851167Y-57367005D01*
X257724677Y-57061632D01*
X257569000Y-56278990D01*
X257569000Y-55481010D01*
X257724677Y-54698368D01*
X257851167Y-54392995D01*
X258030050Y-53961132D01*
X258473383Y-53297638D01*
X259037638Y-52733383D01*
X259701132Y-52290050D01*
X260132995Y-52111167D01*
X260438368Y-51984677D01*
X261221010Y-51829000D01*
X262018990Y-51829000D01*
X262801632Y-51984677D01*
X262801632Y-51984677D01*
G37*
G36*
X158661632Y-51984677D02*
G01*
X158967005Y-52111167D01*
X159398868Y-52290050D01*
X160062362Y-52733383D01*
X160626617Y-53297638D01*
X161069950Y-53961132D01*
X161248833Y-54392995D01*
X161375323Y-54698368D01*
X161531000Y-55481010D01*
X161531000Y-56278990D01*
X161375323Y-57061632D01*
X161248833Y-57367005D01*
X161069950Y-57798868D01*
X160626617Y-58462362D01*
X160062362Y-59026617D01*
X159398868Y-59469950D01*
X158967005Y-59648833D01*
X158661632Y-59775323D01*
X157878990Y-59931000D01*
X157081010Y-59931000D01*
X156298368Y-59775323D01*
X155992995Y-59648833D01*
X155561132Y-59469950D01*
X154897638Y-59026617D01*
X154333383Y-58462362D01*
X153890050Y-57798868D01*
X153711167Y-57367005D01*
X153584677Y-57061632D01*
X153429000Y-56278990D01*
X153429000Y-55481010D01*
X153584677Y-54698368D01*
X153711167Y-54392995D01*
X153890050Y-53961132D01*
X154333383Y-53297638D01*
X154897638Y-52733383D01*
X155561132Y-52290050D01*
X155992995Y-52111167D01*
X156298368Y-51984677D01*
X157081010Y-51829000D01*
X157878990Y-51829000D01*
X158661632Y-51984677D01*
X158661632Y-51984677D01*
G37*
M02*
